<svg width="380" height="342" viewBox="0 0 380 342" fill="none" xmlns="http://www.w3.org/2000/svg">
<g filter="url(#filter0_d_666_397)">
<path fill-rule="evenodd" clip-rule="evenodd" d="M288.973 83.701C289.517 83.8754 290.154 84.0798 290.816 84.2555C290.74 84.2689 290.665 84.2825 290.591 84.2961C289.938 84.4158 289.188 84.5705 288.42 84.729L287.946 84.8268C286.022 85.2225 284.012 85.6154 282.342 85.7437C281.255 85.8272 280.436 85.7314 279.559 85.5385C280.985 85.1523 282.402 84.6111 283.559 84.1618C283.717 84.1008 283.869 84.0416 284.016 83.9841L284.016 83.984L284.017 83.9839C284.707 83.715 285.296 83.4858 285.807 83.309C286.252 83.1549 286.49 83.0964 286.58 83.0743C286.635 83.0607 286.635 83.0607 286.594 83.0607C286.594 83.0607 286.596 83.0607 286.602 83.0609L286.608 83.0612C286.617 83.0617 286.631 83.0626 286.648 83.0643C286.685 83.0678 286.734 83.074 286.797 83.0846C286.927 83.1061 287.092 83.1415 287.297 83.194C287.716 83.3016 288.198 83.4531 288.776 83.6377L288.973 83.701ZM268.49 83.5256C269.469 83.6473 270.201 83.9174 270.979 84.2794C269.874 84.3311 269.048 84.5049 268.219 84.7684C267.94 84.8571 267.691 84.9438 267.447 85.0289C266.7 85.2889 265.997 85.534 264.615 85.773C263.659 85.9382 262.795 85.9969 261.906 85.9748C262.051 85.9338 262.197 85.8893 262.344 85.8412C264.148 85.2526 265.318 84.4754 266.006 84.0181L266.006 84.018L266.006 84.0179C266.161 83.9149 266.292 83.8281 266.4 83.7633C266.666 83.6037 266.823 83.5413 267.019 83.5035C267.252 83.4588 267.68 83.4248 268.49 83.5256ZM249.409 84.0336C249.984 84.1832 250.526 84.3352 251.041 84.4867C250.127 84.3992 249.234 84.3538 248.367 84.3406C248.708 84.2364 249.055 84.1341 249.409 84.0336ZM276.087 81.0029C276.315 81.0342 276.544 81.037 276.794 81.0117C276.559 81.0077 276.323 81.0048 276.087 81.0029ZM296.442 84.4615C296.083 84.4006 295.702 84.3361 295.316 84.276C295.691 84.1681 296.08 84.0401 296.474 83.8993C297.56 84.2191 298.619 84.5639 299.646 84.933C298.755 84.8534 297.706 84.6756 296.567 84.4826L296.508 84.4726L296.442 84.4615ZM316.489 124H310.679C311.806 123.775 312.907 123.542 313.953 123.319C314.274 123.25 314.589 123.182 314.899 123.116L314.899 123.116C316.376 122.799 317.717 122.511 318.883 122.289C320.345 122.01 321.317 121.879 321.842 121.879C323.157 121.879 325.183 122.218 327.693 122.66L328.014 122.716L328.014 122.716C328.769 122.849 329.555 122.988 330.35 123.12C326.737 123.576 322.264 123.863 316.489 124ZM283.667 122.443C287.161 122.682 289.565 123.342 291.961 124H273.9C274.56 123.785 275.13 123.578 275.642 123.391L275.642 123.391C276.042 123.246 276.408 123.113 276.754 122.999C278.216 122.515 279.762 122.175 283.667 122.443ZM242.717 122.994C245.11 123.327 247.229 123.671 249.161 124H238.971L238.685 124C235.635 124.001 228.723 124.003 223.574 123.432C224.512 123.3 225.48 123.172 226.479 123.054C231.366 122.48 236.873 122.181 242.717 122.994ZM213.426 119.742C212.609 119.787 211.773 119.759 210.942 119.678C210.328 119.333 209.772 118.97 209.274 118.586C210.57 119.021 211.962 119.418 213.426 119.742ZM251.512 119.332C250.536 119.162 249.506 118.985 248.41 118.805C249.052 118.851 249.731 118.899 250.449 118.951L250.958 118.987C257.868 119.482 264.466 119.834 270.095 119.889C269.468 120.04 268.765 120.19 267.956 120.335C264.339 120.985 261.355 120.866 257.71 120.355C256.087 120.128 254.361 119.827 252.376 119.482C252.093 119.433 251.806 119.382 251.512 119.332ZM287.315 117.521C287.195 117.606 287.069 117.687 286.939 117.764C289.486 118.132 291.501 118.687 293.283 119.178L293.285 119.179C293.542 119.249 293.794 119.319 294.043 119.386C296.562 120.07 298.711 120.554 301.849 120.304C305.223 120.034 309.224 119.217 312.907 118.429C313.217 118.363 313.525 118.297 313.829 118.231L313.83 118.231C315.307 117.914 316.718 117.611 317.948 117.377C319.381 117.104 320.785 116.879 321.842 116.879C323.695 116.879 326.222 117.324 328.561 117.736L328.753 117.77C331.159 118.193 333.507 118.607 335.466 118.735C336.044 118.773 337.082 118.693 338.538 118.465C339.943 118.244 341.58 117.912 343.278 117.525C344.687 117.204 346.119 116.85 347.471 116.498C347.524 116.443 347.577 116.386 347.63 116.329C341.774 116.362 334.286 116.369 328.876 116.276C324.417 116.199 322.123 116.552 319.445 116.963L318.99 117.033C315.977 117.494 312.477 117.975 305.584 117.975C299.67 117.975 295.758 117.493 293.036 117.158L293.035 117.157L293.031 117.157L293.03 117.157L293.028 117.157L293.026 117.156L293.023 117.156C292.567 117.1 292.146 117.048 291.753 117.003C290.361 116.844 289.54 116.802 288.901 116.881C288.362 116.948 287.904 117.108 287.315 117.521ZM333.262 111.328C331.739 111.316 330.287 111.3 328.962 111.277C324.079 111.193 321.459 111.595 318.681 112.022L318.235 112.09C315.415 112.521 312.173 112.975 305.584 112.975C305.483 112.975 305.382 112.974 305.282 112.974C308.473 112.57 311.877 111.868 314.84 111.239C315.16 111.172 315.474 111.105 315.783 111.039L315.785 111.039L315.794 111.037C317.282 110.72 318.634 110.432 319.811 110.209C321.284 109.931 322.267 109.799 322.801 109.799C324.13 109.799 326.176 110.139 328.705 110.58L329.027 110.637C330.383 110.874 331.837 111.128 333.262 111.328ZM340.229 111.351C343.686 111.351 347.096 111.335 349.911 111.315C350.001 110.639 350.022 109.943 349.972 109.238C348.541 109.608 347.019 109.982 345.518 110.321C343.745 110.722 341.974 111.08 340.403 111.325C340.345 111.334 340.287 111.343 340.229 111.351ZM348.482 104.458C347.595 102.917 346.3 101.446 344.544 100.16L345.445 102.937C343.356 103.615 340.029 104.614 336.806 105.419C335.547 105.733 334.285 106.022 333.107 106.251C334.325 106.439 335.482 106.587 336.529 106.655C337.117 106.693 338.167 106.612 339.634 106.384C341.053 106.163 342.703 105.831 344.415 105.444C345.78 105.136 347.167 104.796 348.482 104.458ZM293.747 112.207L293.658 112.196C293.186 112.138 292.742 112.084 292.321 112.035C290.926 111.876 289.576 111.759 288.286 111.919C286.897 112.091 285.669 112.568 284.443 113.428C284.056 113.7 282.988 114.099 280.895 114.401C278.916 114.687 276.363 114.844 273.335 114.885C267.286 114.969 259.593 114.593 251.315 114L250.225 113.922C242.795 113.389 239.392 113.144 236.53 113.319C234.399 113.449 232.509 113.82 229.519 114.408L229.518 114.408L229.518 114.408L229.517 114.409L229.517 114.409L229.517 114.409C228.31 114.646 226.925 114.918 225.273 115.224C217.779 116.611 210.05 113.914 205.926 111.774L205.926 111.73C208.389 112.378 211.242 112.827 214.034 112.641C215.748 112.526 217.718 112.243 219.803 111.931C220.041 111.896 220.281 111.86 220.523 111.824L220.53 111.823L220.53 111.823C222.441 111.536 224.486 111.23 226.676 110.975C231.603 110.4 237.157 110.1 243.053 110.914C246.103 111.336 248.714 111.775 251.057 112.178C251.348 112.229 251.637 112.278 251.922 112.328C253.911 112.671 255.741 112.988 257.465 113.227C261.47 113.784 265.041 113.949 269.371 113.177C272.703 112.582 274.706 111.86 276.22 111.314C276.624 111.168 276.993 111.035 277.342 110.92C278.822 110.435 280.385 110.095 284.325 110.363C287.853 110.603 290.281 111.264 292.697 111.923C292.955 111.993 293.212 112.063 293.471 112.133C293.563 112.158 293.655 112.183 293.747 112.207ZM206.998 106.841C209.067 107.402 211.458 107.802 213.7 107.652C213.796 107.645 213.893 107.638 213.992 107.631C211.588 107.323 209.32 106.626 207.535 105.917C207.339 106.213 207.159 106.521 206.998 106.841ZM265.738 108.614C266.418 108.531 267.114 108.42 267.834 108.279C270.892 107.676 272.747 106.937 274.118 106.391L274.118 106.391L274.119 106.39L274.119 106.39L274.12 106.39C274.48 106.247 274.806 106.117 275.112 106.006C276.139 105.634 277.215 105.344 279.429 105.382C278.022 105.527 276.901 105.803 275.785 106.169C275.308 106.325 274.86 106.486 274.405 106.65L274.405 106.65C272.925 107.182 271.37 107.741 268.493 108.254C267.539 108.425 266.628 108.542 265.738 108.614ZM299.303 108.212C300.321 108.307 301.41 108.322 302.652 108.223C306.056 107.953 310.091 107.136 313.803 106.348C314.114 106.282 314.424 106.216 314.73 106.151L314.732 106.151L314.733 106.15L314.733 106.15C316.222 105.833 317.644 105.531 318.882 105.296C318.954 105.283 319.025 105.27 319.096 105.256C317.867 105.043 316.864 104.91 316.129 104.91C315.698 104.91 314.85 105.031 313.512 105.311C312.452 105.532 311.234 105.818 309.887 106.135L309.883 106.136L309.882 106.136C309.601 106.202 309.314 106.27 309.021 106.338C306.026 107.04 302.504 107.84 299.303 108.212ZM212.054 102.03C212.002 102.058 211.949 102.086 211.897 102.114C213.608 102.584 215.516 102.895 217.304 102.763C218.619 102.666 220.203 102.419 222.123 102.102C222.336 102.067 222.553 102.031 222.773 101.995L222.776 101.995C224.501 101.709 226.435 101.389 228.505 101.122C230.31 100.89 232.236 100.696 234.26 100.597C229.167 100.112 224.363 100.404 220.042 100.908C217.852 101.163 215.808 101.47 213.896 101.756L213.896 101.756L213.889 101.757C213.647 101.794 213.408 101.83 213.17 101.865C212.794 101.921 212.422 101.976 212.054 102.03ZM240.744 96.0926C240.493 96.1588 240.229 96.2306 239.943 96.309C241.898 96.6084 243.659 96.9068 245.272 97.1845C245.567 97.2353 245.857 97.2854 246.141 97.3345L246.143 97.3348C248.143 97.6804 249.884 97.9811 251.52 98.2085C255.197 98.7195 258.209 98.8391 261.86 98.1879C263.721 97.8559 265.029 97.5047 266.122 97.1539C262.233 97.0692 257.773 96.7257 253.145 96.2582L253.077 96.2513C247.101 95.6477 245.032 95.4387 243.36 95.5824C242.581 95.6493 241.856 95.7991 240.744 96.0926ZM279.793 94.5289C279.471 94.8479 279.107 95.1227 278.716 95.3602C282.401 95.6722 285.076 96.4033 287.371 97.0303L287.372 97.0305C287.631 97.1015 287.886 97.1711 288.137 97.2386C290.678 97.9226 292.848 98.4082 296.018 98.1569C299.422 97.887 303.457 97.0692 307.169 96.2818C307.479 96.216 307.788 96.1503 308.093 96.0852L308.099 96.0841C309.588 95.7671 311.01 95.4642 312.249 95.23C313.225 95.0455 314.185 94.8835 315.033 94.7977C314.677 94.8029 314.357 94.8065 314.076 94.8065C313.822 94.4031 313.544 94.0073 313.242 93.6192C311.547 93.6084 309.921 93.5876 308.496 93.553C305.481 93.4797 303.967 93.8079 302.099 94.2128L301.775 94.283C299.574 94.7572 297.004 95.2519 292.008 95.2519C287.702 95.2519 284.828 94.7524 282.895 94.4163L282.895 94.4162C282.572 94.3602 282.276 94.3087 282.004 94.2648C281.015 94.1055 280.618 94.1 280.389 94.14L280.386 94.1406C280.297 94.1562 280.143 94.183 279.793 94.5289ZM317.145 94.7671C318.867 94.8789 320.964 95.2447 322.932 95.5886L323.127 95.6227C325.551 96.0464 327.919 96.4603 329.896 96.5885C330.483 96.6266 331.533 96.5459 333.001 96.3176C333.37 96.2601 333.756 96.1951 334.154 96.1235C327.157 94.8065 321.045 94.7266 317.145 94.7671ZM330.788 101.584C330.355 101.603 329.946 101.602 329.572 101.578C327.317 101.432 324.711 100.976 322.393 100.57L322.071 100.514C319.542 100.072 317.496 99.7328 316.167 99.7328C315.633 99.7328 314.65 99.8646 313.177 100.143C312.001 100.365 310.648 100.653 309.16 100.97L309.151 100.972C308.842 101.038 308.527 101.105 308.207 101.173C304.537 101.951 300.192 102.842 296.413 103.141C295.603 103.206 294.841 103.23 294.118 103.222C295.243 103.4 296.43 103.459 297.845 103.335C300.891 103.069 304.515 102.259 307.881 101.47L308.252 101.383L308.72 101.273L308.721 101.273L308.721 101.273L308.722 101.273C310.069 100.956 311.363 100.651 312.49 100.416C313.795 100.144 315.115 99.9096 316.129 99.9096C317.862 99.9096 320.202 100.361 322.315 100.769L322.339 100.773L322.499 100.804C324.707 101.23 326.83 101.64 328.593 101.766C329.004 101.796 329.738 101.746 330.788 101.584ZM273.41 101.304C274.918 100.758 276.434 100.411 278.726 100.381C278.392 100.349 278.047 100.321 277.691 100.296C273.752 100.029 272.188 100.369 270.709 100.854C270.359 100.969 269.99 101.102 269.587 101.247C268.073 101.793 266.069 102.516 262.738 103.11C261.415 103.346 260.163 103.495 258.947 103.571C261.679 103.914 264.06 103.926 266.867 103.373C269.432 102.868 270.802 102.324 272.137 101.794L272.138 101.794C272.553 101.629 272.966 101.465 273.41 101.304ZM236.076 90.4702C235.137 91.2326 234.337 92.0022 233.657 92.7626C234.022 92.7083 234.385 92.6349 234.746 92.5407C235.786 92.2691 236.663 92.0287 237.431 91.8164L237.86 91.6974C238.448 91.5345 238.982 91.3864 239.468 91.2581C240.689 90.9359 241.734 90.7037 242.932 90.6007C245.081 90.4161 247.613 90.6725 252.731 91.1908L253.648 91.2835C259.505 91.8753 264.901 92.2448 269.114 92.1629C271.225 92.1219 272.953 91.9684 274.255 91.7033C275.65 91.4191 276.17 91.0803 276.276 90.9749C276.6 90.6545 276.937 90.3713 277.292 90.1289C277.194 90.1032 277.097 90.0775 277 90.0521C275.758 89.7242 274.605 89.4197 272.902 89.3075C270.983 89.1811 270.328 89.3446 269.734 89.5336C269.579 89.5826 269.408 89.6428 269.213 89.7109L269.213 89.7109L269.213 89.711L269.213 89.7111C268.434 89.9841 267.292 90.3841 265.466 90.6998C263.079 91.1127 261.11 91.0201 258.97 90.7318C258.061 90.6093 257.096 90.4477 256.073 90.2762L256.073 90.2762L255.628 90.2018C254.424 90.0007 253.092 89.7836 251.538 89.5755C248.629 89.1861 245.869 89.327 243.378 89.6085C242.268 89.7339 241.233 89.8844 240.246 90.0278L239.87 90.0823C238.802 90.2369 237.74 90.3857 236.802 90.4465C236.56 90.4622 236.318 90.4698 236.076 90.4702ZM287.448 90.0272C287.97 89.9256 288.476 89.8226 288.953 89.7243L289.451 89.6218L289.451 89.6218C290.218 89.4634 290.9 89.3228 291.492 89.2142C292.258 89.0738 292.668 89.0283 292.823 89.0283C293.387 89.0283 294.33 89.1749 295.673 89.4024L295.859 89.434C296.658 89.5695 297.559 89.7225 298.439 89.831C296.899 90.071 294.939 90.2519 292.008 90.2519C290.218 90.2519 288.726 90.1595 287.448 90.0272Z" fill="white" fill-opacity="0.85"/>
<path fill-rule="evenodd" clip-rule="evenodd" d="M285.663 158.431C284.813 158.671 283.706 158.918 282.702 158.8C281.302 158.635 279.737 158.138 278.519 157.751L278.296 157.68C277.62 157.466 277.042 157.286 276.535 157.157C276.003 157.022 275.715 156.988 275.598 156.988C275.606 156.988 275.6 156.989 275.578 156.994C275.494 157.012 275.182 157.077 274.525 157.302C273.917 157.51 273.216 157.781 272.406 158.093L272.406 158.093L272.405 158.094L272.403 158.095C272.231 158.161 272.054 158.229 271.873 158.299C270.048 159.001 267.727 159.873 265.58 160.258L265.714 160.293L265.714 160.293C265.872 160.335 266.026 160.375 266.176 160.414C267.675 160.802 268.874 161.056 270.643 160.921C272.636 160.769 275.022 160.306 277.276 159.847L277.835 159.733C278.736 159.548 279.609 159.37 280.37 159.231C281.24 159.073 282.17 158.927 282.907 158.927C284.114 158.927 285.717 159.196 287.102 159.429L287.155 159.438L287.241 159.452C288.734 159.703 290.126 159.937 291.273 160.008C291.419 160.017 291.664 160.01 292.014 159.977C290.258 159.313 288.414 158.711 286.502 158.173C286.217 158.268 285.936 158.354 285.663 158.431ZM258.866 159.127C258.93 159.158 258.994 159.189 259.059 159.22C256.805 159.131 255.491 159.352 254.173 159.767C253.859 159.866 253.574 159.964 253.291 160.062L253.291 160.062C252.407 160.367 251.544 160.665 249.884 160.95C247.795 161.307 246.072 161.246 243.905 160.956C243.645 160.922 243.38 160.884 243.109 160.843C244.335 160.863 245.609 160.693 247.001 160.243C249.051 159.581 250.359 158.72 251.174 158.185L251.175 158.185C251.366 158.059 251.529 157.951 251.669 157.868C252.01 157.666 252.243 157.568 252.542 157.511C252.876 157.448 253.429 157.411 254.41 157.532C256.036 157.732 257.122 158.268 258.45 158.922C258.586 158.989 258.725 159.057 258.866 159.127ZM236.441 159.408C237.317 159.683 238.173 159.951 238.994 160.176C237.855 159.992 236.594 159.799 235.179 159.611C233.184 159.347 231.262 159.264 229.446 159.29C230.494 158.949 231.593 158.621 232.747 158.311C233.928 158.63 234.986 158.954 235.973 159.262C236.13 159.311 236.285 159.36 236.441 159.408L236.441 159.408ZM264.366 155.39C263.433 155.524 262.745 155.38 261.855 155.001C262.083 155 262.312 155 262.542 155C263.665 155 264.79 155.021 265.913 155.061C265.369 155.207 264.85 155.32 264.366 155.39ZM310.677 205H301.691C303.728 204.625 305.739 204.205 307.605 203.81C307.981 203.73 308.351 203.652 308.714 203.575L308.714 203.575C310.447 203.206 312.027 202.87 313.402 202.611C315.114 202.287 316.294 202.126 316.959 202.126C318.55 202.126 320.974 202.529 323.904 203.041L324.27 203.105C325.587 203.335 326.977 203.578 328.357 203.786C323.882 204.428 318.228 204.822 310.677 205ZM282.92 204.854C283.102 204.903 283.284 204.952 283.467 205H259.304C260.629 204.618 261.675 204.241 262.58 203.915L262.58 203.915L262.581 203.915L262.583 203.914L262.583 203.914C263.056 203.743 263.491 203.587 263.907 203.451C265.69 202.867 267.565 202.469 272.193 202.783C276.344 203.064 279.206 203.844 282.02 204.61L282.021 204.61L282.022 204.611C282.321 204.692 282.62 204.774 282.92 204.854ZM233.505 204.899L234.092 205H219.714L219.378 205H219.378C215.484 205.001 206.225 205.003 200.102 204.147C201.661 203.92 203.294 203.695 205.002 203.496C210.757 202.826 217.261 202.474 224.173 203.427C227.731 203.918 230.776 204.429 233.505 204.899ZM189.971 200.442C189.234 200.492 188.484 200.491 187.733 200.45C186.227 199.704 184.981 198.884 183.985 197.967C186.552 198.883 189.488 199.692 192.63 200.174C191.667 200.295 190.782 200.388 189.971 200.442ZM224.856 198.474C222.797 198.19 220.778 198.014 218.808 197.922C221.593 197.897 225.416 198.168 233.149 198.717L233.149 198.717L233.15 198.718L233.15 198.718L233.812 198.765C243.142 199.427 251.975 199.868 259.143 199.817C257.794 200.263 256.178 200.715 253.807 201.138C249.5 201.905 245.947 201.762 241.64 201.164C239.727 200.898 237.694 200.548 235.366 200.146C235.034 200.089 234.696 200.03 234.352 199.971C231.608 199.499 228.498 198.976 224.856 198.474ZM276.185 197.139C275.722 197.461 275.19 197.739 274.606 197.981C278.207 198.387 280.932 199.13 283.326 199.783L283.326 199.783L283.326 199.783C283.629 199.866 283.926 199.947 284.219 200.026C287.194 200.826 289.774 201.404 293.534 201.107C297.528 200.79 302.251 199.833 306.569 198.919C306.933 198.841 307.295 198.764 307.654 198.688C309.387 198.32 311.037 197.969 312.474 197.697C314.158 197.379 315.766 197.126 316.959 197.126C319.084 197.126 322.003 197.634 324.763 198.115L325.004 198.157C327.815 198.648 330.591 199.133 332.915 199.283C333.647 199.331 334.908 199.23 336.62 198.964C338.284 198.706 340.216 198.317 342.214 197.866C343.62 197.549 345.046 197.203 346.416 196.856C346.836 196.494 347.223 196.098 347.576 195.671C340.655 195.71 331.675 195.721 325.22 195.611C319.949 195.521 317.227 195.935 314.076 196.416C313.9 196.442 313.722 196.469 313.543 196.496C310.024 197.029 305.941 197.586 297.88 197.586C290.97 197.586 286.405 197.029 283.213 196.64L283.212 196.64C282.671 196.574 282.169 196.512 281.702 196.459C278.519 196.099 277.512 196.216 276.185 197.139ZM349.834 190.657C342.735 190.706 332.446 190.734 325.305 190.612C319.614 190.515 316.569 190.978 313.318 191.473L312.794 191.553C309.468 192.057 305.64 192.586 297.88 192.586C291.289 192.586 287.005 192.064 283.829 191.677L283.828 191.677L283.827 191.677C283.275 191.61 282.756 191.547 282.265 191.491C278.907 191.111 276.263 190.994 273.331 193.034C272.785 193.413 271.438 193.888 268.975 194.24C266.625 194.577 263.607 194.759 260.044 194.808C252.926 194.905 243.884 194.467 234.166 193.777L232.93 193.689C224.167 193.066 220.204 192.785 216.877 192.986C214.409 193.135 212.232 193.559 208.743 194.238L208.742 194.239C207.322 194.515 205.685 194.834 203.722 195.194C194.928 196.807 185.894 193.75 180.944 191.249C180.934 190.944 180.935 190.631 180.948 190.312C183.821 191.07 187.162 191.6 190.421 191.384C192.411 191.252 194.705 190.926 197.155 190.564C197.436 190.522 197.72 190.48 198.006 190.437C200.249 190.104 202.656 189.747 205.233 189.449C211.035 188.779 217.595 188.427 224.566 189.381C228.153 189.871 231.223 190.383 233.973 190.852C234.316 190.911 234.655 190.969 234.989 191.026C237.324 191.426 239.463 191.792 241.479 192.07C246.148 192.713 250.288 192.901 255.307 192.014C259.174 191.33 261.484 190.505 263.259 189.87L263.26 189.87L263.26 189.87L263.26 189.87L263.261 189.87L263.262 189.87C263.74 189.699 264.179 189.542 264.599 189.405C266.401 188.82 268.296 188.422 272.965 188.736C277.152 189.018 280.041 189.798 282.878 190.565L282.881 190.566L282.882 190.566L282.882 190.566C283.183 190.647 283.484 190.728 283.785 190.809C286.989 191.664 290.236 192.408 294.868 192.044C299.267 191.699 304.337 190.67 308.648 189.764C308.784 189.735 308.92 189.707 309.055 189.678L309.404 189.605L309.724 189.537L309.755 189.531L309.764 189.529C311.511 189.16 313.104 188.824 314.491 188.564C316.216 188.241 317.409 188.079 318.083 188.079C319.692 188.079 322.138 188.483 325.09 188.995L325.459 189.058C328.186 189.531 331.223 190.058 333.843 190.226C335.161 190.311 336.887 190.133 338.669 189.859C340.498 189.577 342.565 189.162 344.64 188.698C346.424 188.298 348.233 187.857 349.93 187.421C350.048 188.526 350.012 189.615 349.834 190.657ZM348.425 182.645C347.384 180.721 345.802 178.878 343.602 177.281L344.515 180.122C342.071 180.908 338.178 182.067 334.408 182.999C332.524 183.465 330.641 183.882 328.97 184.167C328.534 184.241 328.1 184.308 327.673 184.366C329.988 184.761 332.231 185.112 334.164 185.236C334.906 185.284 336.18 185.183 337.907 184.917C339.585 184.658 341.533 184.27 343.547 183.819C345.186 183.452 346.851 183.047 348.425 182.645ZM316.138 183.229C313.623 182.751 311.592 182.394 310.255 182.394C309.696 182.394 308.657 182.546 307.091 182.87C305.841 183.128 304.405 183.463 302.824 183.831C302.492 183.909 302.154 183.987 301.81 184.067C297.912 184.972 293.291 186.008 289.271 186.357C288.454 186.428 287.684 186.457 286.952 186.453C289.237 186.985 291.488 187.294 294.476 187.06C298.505 186.743 303.267 185.786 307.619 184.871C307.987 184.794 308.351 184.717 308.712 184.64L308.713 184.64L308.714 184.64L308.715 184.64L308.715 184.64L308.715 184.64C310.462 184.271 312.123 183.921 313.57 183.65C314.465 183.482 315.337 183.333 316.138 183.229ZM274.593 183.852C274.174 183.812 273.744 183.777 273.301 183.747C268.137 183.399 265.584 183.828 263.055 184.65C262.507 184.828 261.989 185.013 261.459 185.201L261.459 185.201C259.717 185.822 257.853 186.486 254.437 187.09C250.091 187.858 246.505 187.715 242.161 187.117C240.233 186.851 238.182 186.5 235.836 186.098C235.502 186.041 235.161 185.983 234.815 185.924C232.049 185.452 228.914 184.929 225.244 184.427C217.699 183.394 210.68 183.787 204.66 184.482C201.997 184.79 199.508 185.159 197.271 185.492L197.271 185.492L197.271 185.492L197.27 185.492L197.27 185.492L197.27 185.492C196.984 185.535 196.701 185.576 196.423 185.618C193.942 185.985 191.846 186.279 190.09 186.395C187.379 186.575 184.497 186.093 182.014 185.422C182.308 184.783 182.661 184.185 183.067 183.626C186.163 184.836 190.487 186.005 194.688 185.698C196.513 185.564 198.609 185.234 200.824 184.872C201.079 184.831 201.336 184.789 201.596 184.746C203.627 184.413 205.799 184.057 208.124 183.76C213.357 183.093 219.251 182.745 225.507 183.69C228.747 184.18 231.521 184.69 234.01 185.159C234.32 185.218 234.626 185.276 234.929 185.333C237.042 185.733 238.988 186.1 240.821 186.379C245.081 187.027 248.885 187.22 253.495 186.32C257.038 185.628 259.17 184.787 260.778 184.152L260.778 184.152C261.207 183.983 261.598 183.828 261.969 183.695C263.537 183.133 265.19 182.739 269.366 183.049C271.388 183.199 273.069 183.493 274.593 183.852ZM189.333 178.864C188.676 179.162 188.043 179.485 187.439 179.834C189.584 180.451 192.029 180.879 194.323 180.711C195.89 180.596 197.768 180.305 200.018 179.938C200.27 179.897 200.525 179.855 200.785 179.812L200.785 179.812L200.785 179.812L200.785 179.812L200.785 179.812L200.785 179.812L200.786 179.812C202.81 179.48 205.072 179.109 207.492 178.8C211.315 178.313 215.591 177.972 220.17 178.166C219.092 178.001 217.966 177.837 216.783 177.675C209.812 176.722 203.252 177.074 197.45 177.744C194.872 178.042 192.466 178.399 190.223 178.732L190.223 178.732C189.936 178.775 189.653 178.817 189.371 178.859C189.359 178.861 189.346 178.862 189.333 178.864ZM218.878 172.92C221.947 173.36 224.628 173.809 227.031 174.219C227.378 174.278 227.718 174.336 228.053 174.393C230.399 174.795 232.449 175.146 234.378 175.412C238.722 176.01 242.308 176.153 246.653 175.385C250.069 174.781 251.933 174.117 253.676 173.496L253.676 173.496C253.767 173.464 253.858 173.431 253.949 173.399C248.897 173.415 242.789 172.977 236.392 172.337L236.195 172.317C229.298 171.626 226.831 171.379 224.825 171.55C223.437 171.668 222.34 171.97 220.127 172.578L220.127 172.578L220.126 172.578C219.745 172.683 219.332 172.797 218.878 172.92ZM264.804 171.998C265.749 171.622 266.616 171.123 267.303 170.449C267.767 169.994 268.025 169.915 268.238 169.878C268.589 169.817 269.123 169.837 270.283 170.022C270.606 170.074 270.955 170.134 271.334 170.199L271.335 170.199L271.335 170.199L271.336 170.199C273.603 170.59 276.938 171.164 281.951 171.164C287.773 171.164 290.757 170.594 293.315 170.048C293.443 170.02 293.569 169.993 293.694 169.966C295.898 169.493 297.717 169.102 301.309 169.189C302.884 169.227 304.67 169.25 306.535 169.263C307.02 169.845 307.457 170.442 307.846 171.053C308.347 171.053 308.953 171.044 309.654 171.033C314.172 170.961 322.653 170.826 332.5 172.796C331.667 172.957 330.868 173.097 330.123 173.212C328.397 173.478 327.123 173.579 326.38 173.531C324.036 173.381 321.236 172.896 318.403 172.405L318.16 172.363C315.376 171.881 312.438 171.374 310.3 171.374C309.102 171.374 307.485 171.627 305.787 171.945C304.339 172.216 302.676 172.567 300.929 172.935L300.929 172.935C300.568 173.012 300.203 173.089 299.836 173.166C295.484 174.081 290.721 175.038 286.692 175.354C282.896 175.653 280.29 175.073 277.29 174.273C276.995 174.194 276.696 174.113 276.391 174.03L276.39 174.03C273.535 173.257 270.215 172.358 265.517 172.042C265.274 172.026 265.036 172.011 264.804 171.998ZM340.545 176.12C338.389 176.77 335.762 177.514 333.207 178.146C331.389 178.596 329.636 178.981 328.13 179.238C326.571 179.503 325.463 179.596 324.847 179.552C322.751 179.403 320.238 178.922 317.66 178.429L317.66 178.429L317.66 178.429L317.455 178.39C314.951 177.911 312.243 177.394 310.255 177.394C309.118 177.394 307.612 177.656 306.078 177.973C304.761 178.246 303.25 178.598 301.667 178.967L301.667 178.967L301.667 178.967C301.341 179.043 301.011 179.12 300.68 179.197C296.734 180.112 292.451 181.062 288.839 181.376C285.484 181.667 283.187 181.105 280.487 180.31C280.222 180.231 279.952 180.151 279.677 180.069L279.675 180.068L279.673 180.067C279.309 179.958 278.935 179.847 278.551 179.734C281.001 180.272 283.665 180.608 287.084 180.339C291.484 179.994 296.554 178.965 300.864 178.059C301.24 177.98 301.609 177.902 301.971 177.826L301.981 177.824C303.727 177.455 305.321 177.119 306.707 176.859C308.433 176.536 309.625 176.374 310.3 176.374C311.908 176.374 314.355 176.778 317.307 177.289L317.675 177.353C320.403 177.826 323.439 178.353 326.06 178.521C327.377 178.606 329.104 178.428 330.885 178.153C332.715 177.871 334.782 177.457 336.857 176.993C338.089 176.717 339.334 176.421 340.545 176.12ZM274.729 178.761C273.261 178.456 271.619 178.203 269.737 178.063C265.01 177.711 262.634 178.145 260.281 178.989C259.773 179.171 259.297 179.358 258.813 179.549L258.813 179.549C257.24 180.167 255.59 180.817 252.537 181.413C248.667 182.168 245.475 182.03 241.573 181.436C240.434 181.263 239.247 181.053 237.966 180.816C241.041 181.02 244.075 180.918 247.524 180.309C251.391 179.625 253.7 178.8 255.476 178.165L255.476 178.165C255.955 177.994 256.395 177.837 256.816 177.7C258.618 177.115 260.513 176.716 265.182 177.031C269.19 177.301 272.008 178.027 274.729 178.761ZM216.849 165.593C215.314 166.77 214.071 167.967 213.073 169.14C213.675 169.073 214.275 168.965 214.871 168.811C216.184 168.471 217.306 168.163 218.299 167.89C220.84 167.192 222.532 166.727 224.401 166.568C226.879 166.357 229.806 166.651 235.864 167.259L236.89 167.361C243.769 168.05 250.123 168.482 255.094 168.386C257.585 168.338 259.643 168.159 261.208 167.843C262.868 167.508 263.585 167.092 263.803 166.879C264.414 166.279 265.06 165.804 265.768 165.465C265.482 165.397 265.201 165.326 264.924 165.255C264.766 165.214 264.61 165.173 264.455 165.132C262.996 164.751 261.605 164.387 259.561 164.253C257.265 164.103 256.437 164.296 255.675 164.536C255.484 164.596 255.276 164.669 255.042 164.75L255.042 164.75C254.126 165.067 252.829 165.518 250.728 165.878C247.986 166.348 245.725 166.244 243.243 165.912C242.184 165.771 241.061 165.584 239.859 165.385L239.859 165.385L239.859 165.385L239.858 165.385L239.336 165.298C237.921 165.064 236.353 164.811 234.522 164.568C231.057 164.108 227.778 164.276 224.835 164.605C223.525 164.752 222.303 164.928 221.145 165.094L220.704 165.158C219.448 165.338 218.22 165.508 217.14 165.577C217.043 165.584 216.946 165.589 216.849 165.593ZM299.592 163.569C299.927 163.769 300.256 163.972 300.578 164.178C296.928 164.158 294.813 164.612 292.641 165.079L292.27 165.158C289.974 165.648 287.347 166.164 281.951 166.164C278.459 166.164 275.918 165.869 273.91 165.557C275.419 165.322 276.933 165.019 278.275 164.746L278.856 164.627C279.756 164.443 280.562 164.278 281.263 164.151C282.159 163.988 282.678 163.927 282.907 163.927C283.616 163.927 284.766 164.107 286.327 164.369L286.538 164.404C287.926 164.638 289.548 164.91 290.962 164.998C291.772 165.049 292.766 164.943 293.697 164.804C294.675 164.658 295.768 164.445 296.852 164.21C297.777 164.009 298.713 163.788 299.592 163.569Z" fill="white" fill-opacity="0.5"/>
<path fill-rule="evenodd" clip-rule="evenodd" d="M158.054 44.4247C157.234 44.6646 156.137 44.9214 155.13 44.7987C153.764 44.6321 152.24 44.1301 151.069 43.7443L150.85 43.6723C150.198 43.458 149.644 43.2793 149.16 43.1518C148.651 43.0174 148.39 42.9882 148.299 42.9882C148.321 42.9882 148.314 42.9896 148.274 42.9991C148.179 43.0217 147.89 43.0899 147.32 43.2923C146.736 43.4999 146.064 43.769 145.282 44.0818L145.282 44.0819L145.277 44.0838L145.275 44.0846C145.11 44.1504 144.941 44.2181 144.767 44.2876C143.007 44.9892 140.751 45.8698 138.657 46.2572L138.81 46.299C138.962 46.3404 139.111 46.3808 139.255 46.4196C140.696 46.8059 141.829 47.0538 143.506 46.9214C145.416 46.7706 147.707 46.31 149.883 45.8504L150.421 45.7365C151.29 45.5521 152.135 45.3729 152.871 45.2344C153.708 45.0767 154.621 44.9274 155.349 44.9274C156.529 44.9274 158.086 45.1984 159.415 45.4298L159.476 45.4403L159.553 45.4537C160.998 45.7052 162.333 45.9376 163.43 46.0085C163.561 46.0169 163.793 46.0098 164.132 45.9762C162.444 45.3144 160.671 44.7139 158.832 44.1777C158.568 44.2676 158.308 44.3505 158.054 44.4247ZM132.091 45.1105C132.161 45.1462 132.233 45.1822 132.305 45.2182C130.144 45.1342 128.866 45.3564 127.583 45.775C127.276 45.8755 126.998 45.9748 126.724 46.073C125.874 46.377 125.055 46.6701 123.467 46.9522C121.476 47.3059 119.833 47.2457 117.755 46.9579C117.501 46.9228 117.243 46.8846 116.978 46.8436C118.172 46.8613 119.415 46.6895 120.77 46.235C122.767 45.5654 124.047 44.6925 124.831 44.1579C125.013 44.0341 125.168 43.9284 125.299 43.8476C125.622 43.6488 125.831 43.56 126.095 43.508C126.394 43.4489 126.907 43.4114 127.841 43.5308C129.381 43.7274 130.406 44.2512 131.69 44.9068C131.821 44.9734 131.954 45.0414 132.091 45.1105ZM110.48 45.4001C111.312 45.6707 112.13 45.9364 112.916 46.1603C111.844 45.9818 110.661 45.7947 109.338 45.6128C107.405 45.3469 105.544 45.2637 103.786 45.2904C104.793 44.9498 105.849 44.6236 106.958 44.3141C108.08 44.6292 109.087 44.949 110.029 45.254C110.18 45.3027 110.33 45.3515 110.48 45.4001L110.48 45.4001ZM137.441 41.392C136.574 41.5211 135.939 41.384 135.08 41.0012C135.288 41.0004 135.497 41 135.707 41C136.784 41 137.862 41.0202 138.938 41.0603C138.41 41.2079 137.908 41.3223 137.441 41.392ZM182.135 90.9999H173.484C175.457 90.6231 177.405 90.2025 179.209 89.8061L179.716 89.6947L180.279 89.5706C181.95 89.2021 183.472 88.8666 184.796 88.6074C186.449 88.2838 187.572 88.1263 188.194 88.1263C189.71 88.1263 192.03 88.5256 194.862 89.0381L195.22 89.1028C196.494 89.3336 197.842 89.5778 199.181 89.787C194.866 90.4285 189.415 90.8216 182.135 90.9999ZM155.318 90.8483C155.501 90.8993 155.684 90.9499 155.868 90.9999H132.61C133.906 90.6132 134.927 90.2319 135.806 89.9035C136.262 89.7332 136.68 89.5772 137.078 89.4419C138.774 88.8663 140.559 88.4695 145.004 88.7822C148.99 89.0627 151.736 89.8379 154.45 90.6042C154.739 90.6859 155.028 90.7674 155.318 90.8483ZM107.67 90.8961L108.251 90.9999H94.3992L94.0752 90.9999C90.3205 91.0008 81.3954 91.0028 75.4892 90.1483C76.9979 89.9203 78.5771 89.694 80.2297 89.4945C85.7724 88.8256 92.0297 88.4751 98.6751 89.4253C102.104 89.9157 105.039 90.4268 107.67 90.8961ZM65.6992 86.4427C64.9923 86.4916 64.2726 86.4908 63.5517 86.4501C62.1097 85.709 60.9143 84.8951 59.9571 83.9855C62.426 84.8942 65.2458 85.6952 68.2621 86.1746C67.3328 86.2957 66.4803 86.3886 65.6992 86.4427ZM99.3829 84.4757C97.3898 84.1907 95.4353 84.0139 93.5287 83.9219C96.2052 83.897 99.8884 84.1681 107.369 84.7189L107.37 84.7189L107.37 84.7189L107.984 84.7641C116.971 85.4255 125.484 85.8666 132.4 85.8175C131.099 86.2647 129.544 86.7168 127.251 87.1404C123.122 87.9031 119.715 87.7619 115.572 87.1656C113.73 86.9006 111.772 86.5503 109.526 86.1485L109.526 86.1485L109.513 86.1463C109.197 86.0898 108.876 86.0322 108.548 85.9738C105.901 85.5017 102.899 84.9784 99.3829 84.4757ZM148.952 83.1139C148.489 83.448 147.956 83.735 147.372 83.9829C150.856 84.3907 153.493 85.1368 155.8 85.7896L155.8 85.7896L155.8 85.7896C156.092 85.8722 156.379 85.9533 156.661 86.032C159.524 86.8302 161.99 87.4024 165.587 87.1071C169.426 86.792 173.97 85.8377 178.137 84.9225C178.488 84.8454 178.836 84.7685 179.182 84.6924C180.854 84.3237 182.447 83.9722 183.836 83.7005C185.459 83.3827 187.025 83.1263 188.194 83.1263C190.263 83.1263 193.096 83.6374 195.753 84.118L195.979 84.1589L195.979 84.1589C198.695 84.6506 201.365 85.1338 203.596 85.2837C204.281 85.3297 205.481 85.2323 207.131 84.9664C208.73 84.7088 210.59 84.3213 212.515 83.8707C213.887 83.5495 215.279 83.1995 216.616 82.8477C217.017 82.4884 217.388 82.0946 217.725 81.671C211.049 81.7102 202.386 81.7213 196.158 81.611C191.089 81.5212 188.476 81.9339 185.44 82.4134L185.218 82.4485L184.926 82.4944C181.525 83.0283 177.578 83.5861 169.792 83.5861C163.115 83.5861 158.702 83.0277 155.623 82.6382L155.622 82.6381L155.621 82.6379C155.1 82.572 154.617 82.511 154.168 82.4582C152.592 82.2732 151.635 82.2201 150.877 82.3165C150.223 82.3997 149.66 82.6033 148.952 83.1139ZM219.903 76.6567C213.057 76.706 203.133 76.7337 196.247 76.6118C190.742 76.5143 187.795 76.9797 184.655 77.4753L184.15 77.5549C180.948 78.0577 177.265 78.5861 169.792 78.5861C163.446 78.5861 159.324 78.0656 156.261 77.6788L156.26 77.6787L156.259 77.6785L156.257 77.6783C155.725 77.6111 155.225 77.548 154.751 77.4923C153.172 77.3071 151.671 77.1751 150.246 77.3564C148.718 77.5509 147.374 78.0878 146.028 79.0582C145.525 79.4204 144.256 79.8907 141.887 80.2422C139.63 80.577 136.728 80.7592 133.295 80.8078C126.438 80.905 117.722 80.4673 108.351 79.7776L107.142 79.6885C98.7068 79.0668 94.8729 78.7842 91.6513 78.9859C89.2586 79.1357 87.1432 79.5629 83.7702 80.2442L83.7698 80.2443C82.4016 80.5207 80.8266 80.8388 78.9422 81.1972C70.4683 82.8087 61.7464 79.7271 57.004 77.228C56.995 76.9313 56.9962 76.6281 57.0076 76.3181C59.784 77.0735 63.0077 77.6004 66.1572 77.3839C68.0849 77.2515 70.3043 76.924 72.6662 76.5618C72.9355 76.5205 73.2072 76.4787 73.4814 76.4364L73.4879 76.4354L73.4882 76.4354L73.4883 76.4354C75.6514 76.1023 77.9699 75.7453 80.4527 75.4479C86.0412 74.7787 92.352 74.4279 99.0548 75.3788C102.512 75.8693 105.47 76.3806 108.123 76.8499C108.447 76.9072 108.767 76.9641 109.084 77.0203L109.102 77.0235C111.354 77.4233 113.421 77.7902 115.367 78.0682C119.882 78.7129 123.896 78.9024 128.76 78.0109C132.506 77.3246 134.748 76.4938 136.461 75.8592L136.462 75.859L136.463 75.8585L136.464 75.8582L136.464 75.858L136.465 75.8577C136.923 75.6879 137.344 75.5321 137.745 75.397C139.46 74.8195 141.265 74.4224 145.749 74.7355C149.77 75.0162 152.541 75.7924 155.277 76.5587C155.569 76.6404 155.86 76.7219 156.152 76.8028C159.249 77.6593 162.404 78.4099 166.901 78.0436C171.157 77.697 176.059 76.6657 180.214 75.7601C180.414 75.7167 180.611 75.6735 180.807 75.6308C180.962 75.5968 181.116 75.5631 181.269 75.5296L181.29 75.525L181.292 75.5246C182.977 75.1561 184.511 74.8205 185.846 74.5612C187.512 74.2377 188.647 74.0795 189.279 74.0795C190.811 74.0795 193.153 74.4796 196.007 74.9919L196.366 75.0564C198.994 75.5287 201.931 76.0566 204.468 76.2257C205.76 76.3117 207.442 76.1312 209.161 75.8564C210.931 75.5736 212.929 75.1585 214.932 74.6933C216.64 74.2969 218.371 73.8593 219.997 73.427C220.11 74.53 220.074 75.6165 219.903 76.6567ZM218.542 68.6401C217.536 66.7131 216.005 64.8683 213.878 63.2701L214.826 66.1139C212.466 66.9004 208.707 68.0605 205.066 68.9942C203.247 69.4608 201.426 69.8787 199.809 70.1642C199.385 70.239 198.96 70.3075 198.542 70.3658C200.78 70.7613 202.941 71.1128 204.8 71.2367C205.496 71.2831 206.708 71.185 208.372 70.9191C209.985 70.6613 211.86 70.2736 213.801 69.8229C215.394 69.453 217.013 69.0451 218.542 68.6401ZM187.388 69.2295C184.949 68.7482 183.002 68.3939 181.728 68.3939C181.209 68.3939 180.224 68.5416 178.712 68.8659C177.509 69.1239 176.127 69.4578 174.602 69.8262L174.601 69.8264L174.601 69.8265C174.281 69.9038 173.955 69.9825 173.623 70.0625C169.864 70.9669 165.396 72.0063 161.504 72.3563C160.719 72.4269 159.978 72.4568 159.273 72.4529C161.473 72.9856 163.629 73.2936 166.495 73.0601C170.367 72.7448 174.95 71.7898 179.15 70.8747C179.494 70.7997 179.837 70.7248 180.176 70.6506L180.181 70.6495L180.199 70.6455L180.2 70.6452L180.203 70.6445L180.204 70.6445C181.889 70.2758 183.494 69.9245 184.893 69.6529C185.759 69.4848 186.607 69.3341 187.388 69.2295ZM147.291 69.8468C146.903 69.8094 146.506 69.7761 146.097 69.7476C141.098 69.3986 138.612 69.8291 136.149 70.6585C135.617 70.8378 135.114 71.0234 134.602 71.2127C132.923 71.8328 131.139 72.4918 127.859 73.0928C123.691 73.8566 120.253 73.7151 116.074 73.1184C114.218 72.8533 112.243 72.5028 109.979 72.101L109.979 72.101C109.657 72.0438 109.329 71.9855 108.994 71.9263C106.326 71.4543 103.3 70.9311 99.7571 70.4284C92.4595 69.3931 85.6732 69.7871 79.8582 70.4834C77.2862 70.7914 74.8825 71.1616 72.7251 71.4939L72.7231 71.4943L72.7166 71.4953L72.7026 71.4974L72.6937 71.4988C72.4282 71.5397 72.1663 71.58 71.9084 71.6196C69.5142 71.9867 67.4996 72.2799 65.8144 72.3957C63.2065 72.5749 60.4293 72.0893 58.0391 71.4156C58.3202 70.7829 58.6576 70.1906 59.0447 69.636C62.042 70.8445 66.2125 72.0053 70.2736 71.6971C72.043 71.5628 74.0725 71.2317 76.208 70.87C76.454 70.8284 76.7022 70.7862 76.9525 70.7436C78.9119 70.4104 81.0033 70.0547 83.243 69.7586C88.2815 69.0923 93.9486 68.7461 99.9599 69.6879C103.082 70.1771 105.755 70.6871 108.155 71.1562C108.454 71.2145 108.749 71.2724 109.041 71.3297C111.079 71.7293 112.959 72.0979 114.731 72.3772C118.852 73.0271 122.543 73.2218 127.016 72.3167C130.45 71.6217 132.521 70.7739 134.072 70.1388L134.072 70.1388C134.484 69.9704 134.858 69.817 135.212 69.6854C136.7 69.132 138.269 68.7396 142.277 69.0486C144.216 69.1981 145.828 69.4896 147.291 69.8468ZM65.0891 64.8676C64.4605 65.1632 63.8547 65.4828 63.2773 65.8287C65.3404 66.4478 67.6937 66.8785 69.8953 66.7114C71.3976 66.5974 73.2019 66.3079 75.3732 65.9402C75.6147 65.8993 75.8602 65.8576 76.1094 65.8152L76.1122 65.8147L76.1124 65.8147L76.1127 65.8146C78.0655 65.4824 80.2501 65.1108 82.5875 64.8017C86.274 64.3142 90.4002 63.9728 94.8202 64.1647C93.7795 64.0003 92.6912 63.8359 91.5485 63.6737C84.8457 62.7228 78.535 63.0737 72.9464 63.7429C70.4635 64.0402 68.1449 64.3972 65.9816 64.7304L65.9745 64.7315C65.7005 64.7737 65.429 64.8155 65.16 64.8567C65.1364 64.8603 65.1127 64.864 65.0891 64.8676ZM93.6083 58.9205C96.5755 59.3613 99.1668 59.8106 101.488 60.2213C101.822 60.2805 102.151 60.3387 102.473 60.396L102.473 60.396C104.737 60.7977 106.711 61.1482 108.568 61.4133C112.747 62.01 116.185 62.1515 120.353 61.3878C123.633 60.7867 125.417 60.1277 127.096 59.5076C127.194 59.4713 127.292 59.4351 127.39 59.399C122.513 59.4134 116.626 58.9748 110.468 58.3356L110.322 58.3205C103.626 57.6256 101.262 57.3801 99.3438 57.5494C98.4405 57.6292 97.6028 57.8079 96.3379 58.1508C95.8235 58.2903 95.2601 58.4507 94.599 58.639L94.5985 58.6392L94.5984 58.6392L94.0935 58.7829C93.9365 58.8275 93.7748 58.8734 93.6083 58.9205ZM137.919 57.9994C138.855 57.617 139.714 57.1083 140.394 56.4173C140.838 55.966 141.067 55.9048 141.232 55.8753C141.539 55.8202 142.027 55.8346 143.146 56.0199C143.456 56.0712 143.793 56.1313 144.159 56.1966C146.346 56.5872 149.577 57.1642 154.428 57.1642C160.059 57.1642 162.95 56.5919 165.425 56.0437L165.644 55.9951L165.792 55.9622C167.914 55.4897 169.652 55.1027 173.095 55.1887C174.616 55.2267 176.34 55.2503 178.14 55.2634C178.607 55.8449 179.03 56.4417 179.405 57.0535C179.887 57.0535 180.472 57.0438 181.149 57.0326C185.505 56.9607 193.682 56.8256 203.176 58.7948C202.365 58.9567 201.589 59.0984 200.866 59.214C199.202 59.4799 197.99 59.578 197.294 59.5317C195.043 59.3816 192.35 58.8981 189.613 58.4066L189.384 58.3654C186.705 57.8846 183.854 57.3744 181.773 57.3744C180.598 57.3744 179.024 57.63 177.387 57.9478C175.988 58.2194 174.382 58.5707 172.697 58.9394L172.697 58.9395C172.349 59.0156 171.997 59.0925 171.643 59.1696C167.444 60.0848 162.861 61.0397 158.989 61.3551C155.357 61.6509 152.866 61.0773 149.979 60.2787C149.695 60.2001 149.406 60.1191 149.113 60.0367L149.111 60.0363C146.357 59.2632 143.14 58.3601 138.591 58.0425C138.362 58.0265 138.138 58.0122 137.919 57.9994ZM210.693 62.1904C208.655 62.8243 206.207 63.5399 203.824 64.1509C202.072 64.6002 200.386 64.985 198.94 65.2402C197.438 65.5053 196.386 65.5944 195.816 65.5524C193.805 65.4044 191.389 64.9254 188.897 64.4312L188.706 64.3934L188.7 64.3921C186.293 63.915 183.665 63.3939 181.728 63.3939C180.611 63.3939 179.142 63.66 177.664 63.9771C176.391 64.25 174.931 64.6029 173.405 64.9716C173.09 65.0477 172.772 65.1244 172.453 65.2012C168.646 66.1175 164.526 67.0644 161.057 67.3764C157.854 67.6644 155.664 67.1105 153.065 66.3168C152.815 66.2404 152.561 66.1617 152.302 66.0814L152.296 66.0795L152.296 66.0794L152.287 66.0767L152.286 66.0763L152.281 66.0748L152.28 66.0746C151.961 65.9756 151.634 65.8743 151.298 65.7721C153.621 66.2878 156.161 66.6019 159.395 66.3386C163.651 65.9919 168.552 64.9606 172.708 64.055C173.074 63.9753 173.433 63.8967 173.786 63.8195C175.471 63.451 177.005 63.1154 178.34 62.8561C180.006 62.5326 181.141 62.3744 181.773 62.3744C183.305 62.3744 185.647 62.7746 188.501 63.2868L188.86 63.3513L188.86 63.3513C191.488 63.8237 194.425 64.3515 196.962 64.5206C198.254 64.6067 199.935 64.4261 201.655 64.1513C203.425 63.8685 205.423 63.4534 207.426 62.9882C208.516 62.735 209.617 62.465 210.693 62.1904ZM147.311 64.7251C145.937 64.4364 144.405 64.1979 142.661 64.0634C138.08 63.7103 135.764 64.1455 133.469 64.999C132.975 65.1828 132.513 65.3712 132.045 65.562L132.045 65.5621L132.045 65.5622L132.045 65.5622C130.53 66.18 128.953 66.8232 126.024 67.416C122.317 68.1661 119.261 68.0298 115.51 67.4382C114.412 67.2651 113.268 67.0554 112.031 66.818C114.996 67.0197 117.926 66.9158 121.254 66.3059C125 65.6195 127.242 64.7887 128.955 64.1541L128.955 64.154C129.415 63.9837 129.836 63.8274 130.239 63.6919C131.953 63.1144 133.758 62.7173 138.243 63.0304C142.039 63.2954 144.721 64.0021 147.311 64.7251ZM91.6356 51.5929C90.1556 52.7697 88.957 53.9664 87.9944 55.1382C88.5602 55.0724 89.1243 54.9667 89.684 54.8166C90.8633 54.5004 91.8578 54.2203 92.7266 53.9734L93.2137 53.8347C93.8784 53.6454 94.4812 53.4737 95.0296 53.325C96.4051 52.9521 97.5703 52.6865 98.9042 52.5688C101.312 52.3563 104.152 52.6518 109.974 53.2574L110.984 53.3623C117.617 54.0507 123.736 54.4818 128.521 54.3862C130.918 54.3383 132.891 54.1593 134.386 53.8463C135.972 53.5145 136.636 53.1078 136.83 52.9111C137.432 52.2983 138.074 51.8097 138.786 51.4621C138.506 51.3935 138.231 51.3216 137.96 51.249C137.808 51.2082 137.658 51.1674 137.508 51.1268C136.102 50.7452 134.774 50.385 132.82 50.2528C130.623 50.1041 129.847 50.2956 129.135 50.5281C128.955 50.5871 128.756 50.6586 128.532 50.739C127.65 51.0567 126.383 51.5124 124.342 51.8751C121.674 52.349 119.474 52.2437 117.069 51.9107C116.044 51.7689 114.957 51.5818 113.799 51.3823L113.295 51.2958C111.931 51.0617 110.42 50.8087 108.657 50.5662C105.335 50.1093 102.188 50.2752 99.3574 50.6039C98.0971 50.7502 96.9206 50.9258 95.8035 51.0925L95.3787 51.1559C94.1678 51.3359 92.9766 51.5072 91.9273 51.5771C91.8301 51.5836 91.7329 51.5888 91.6356 51.5929ZM171.45 49.5731C171.771 49.7715 172.086 49.9729 172.395 50.1775C168.855 50.1578 166.8 50.6153 164.702 51.0826L164.345 51.1619C162.138 51.6504 159.618 52.1642 154.428 52.1642C151.064 52.1642 148.62 51.8688 146.686 51.5573C148.151 51.3204 149.62 51.0163 150.916 50.7424L151.478 50.6235L151.478 50.6235L151.478 50.6234C152.347 50.4393 153.122 50.275 153.796 50.1481C154.661 49.9851 155.147 49.9274 155.349 49.9274C156.015 49.9274 157.107 50.1033 158.618 50.3663L158.825 50.4023L158.825 50.4023C160.162 50.6353 161.734 50.9093 163.108 50.9981C163.909 51.0499 164.883 50.9415 165.783 50.8021C166.731 50.6551 167.79 50.4415 168.837 50.2057C169.718 50.0074 170.61 49.7891 171.45 49.5731Z" fill="white" fill-opacity="0.7"/>
<path fill-rule="evenodd" clip-rule="evenodd" d="M234.982 219.609C233.507 219.872 232.01 220.056 230.829 219.968C228.624 219.804 226.084 219.295 223.85 218.848L223.53 218.784C221.07 218.292 219.134 217.926 217.896 217.926C217.426 217.926 216.513 218.063 215.085 218.372C213.952 218.617 212.65 218.935 211.211 219.285L211.202 219.288C210.903 219.361 210.598 219.435 210.287 219.51C206.743 220.371 202.516 221.363 198.831 221.698C198.284 221.748 197.76 221.776 197.255 221.786C198.1 221.913 198.892 222.045 199.653 222.171L199.653 222.171L199.656 222.171C199.933 222.217 200.207 222.262 200.477 222.307C203.245 222.759 205.724 223.099 209.324 222.926C213.064 222.746 217.465 222.203 221.439 221.692C221.804 221.645 222.168 221.598 222.528 221.551C225.957 221.108 229.121 220.698 230.86 220.698C232.736 220.698 235.351 220.972 237.923 221.245L238.168 221.271C240.741 221.544 243.336 221.819 245.522 221.905C246.13 221.929 246.983 221.895 248.012 221.816C244.289 220.9 240.333 220.084 236.204 219.374C235.786 219.46 235.378 219.539 234.982 219.609ZM189.429 220.494C190.23 220.741 191.042 220.981 191.892 221.185C191.242 221.139 190.561 221.101 189.844 221.071C185.198 220.88 182.959 221.116 180.74 221.557C180.257 221.653 179.794 221.754 179.315 221.859L179.315 221.859C177.714 222.208 175.953 222.593 172.767 222.937C166.89 223.573 162.619 223.125 155.729 222.403C152.949 222.112 149.742 221.776 145.832 221.448C141.899 221.119 138.08 221.054 134.484 221.134C137.116 220.563 139.942 220.025 142.973 219.528C144.982 219.875 146.787 220.224 148.453 220.553C148.734 220.608 149.011 220.663 149.286 220.718L149.289 220.718L149.289 220.718L149.289 220.718C151.211 221.098 152.988 221.45 154.663 221.716C158.563 222.337 162.066 222.524 166.31 221.658C169.567 220.993 171.537 220.179 173.001 219.574C173.387 219.414 173.738 219.27 174.067 219.146C175.446 218.628 176.901 218.256 180.663 218.549C184.032 218.811 186.344 219.533 188.681 220.262C188.929 220.339 189.178 220.417 189.429 220.494ZM198.379 216.718C195.794 216.953 193.917 216.596 191.876 216.008C192.821 216.003 193.775 216 194.739 216C197.333 216 199.93 216.039 202.522 216.116C201.081 216.386 199.681 216.6 198.379 216.718ZM280.116 272H261.263C265.622 271.525 270.015 270.95 274.081 270.406C274.699 270.323 275.309 270.241 275.909 270.161C282.825 269.233 288.425 268.481 291.259 268.481C294.385 268.481 298.965 268.97 304.065 269.532L304.653 269.597C307.447 269.905 310.36 270.226 313.179 270.478C304.982 271.294 294.487 271.786 280.116 272ZM231.618 271.597C232.436 271.736 233.249 271.871 234.067 272H186.904C189.76 271.518 191.906 271.031 193.794 270.602L193.794 270.602C194.666 270.404 195.482 270.218 196.289 270.052C199.853 269.315 203.555 268.856 212.052 269.22C219.704 269.548 225.025 270.464 230.025 271.324C230.559 271.416 231.089 271.508 231.618 271.597ZM145.273 271.785C145.942 271.858 146.601 271.93 147.249 272H118.777L118.182 272C110.91 272.001 93.0928 272.003 82.321 270.885C94.7012 269.727 110.057 268.473 127.074 269.955C134.08 270.565 140.005 271.211 145.27 271.784L145.271 271.785L145.272 271.785L145.273 271.785L145.273 271.785ZM66.2132 267.191C65.1942 267.234 64.1655 267.246 63.135 267.231C59.3846 266.137 56.4678 264.901 54.3458 263.458C60.0528 264.846 67.006 266.087 74.4776 266.587C71.3939 266.867 68.6229 267.089 66.2132 267.191ZM127.508 264.974C120.683 264.379 114.061 264.218 107.779 264.313C110.038 264.074 111.982 263.918 114.106 263.837C119.602 263.628 126.235 263.925 142.434 264.652L143.983 264.721C161.263 265.496 177.505 265.996 190.389 265.885C190.953 265.88 191.511 265.874 192.062 265.866C189.096 266.537 185.634 267.283 179.745 267.946C168.192 269.246 159.679 268.318 146.293 266.86L146.293 266.859C140.969 266.279 134.873 265.615 127.508 264.974ZM217.41 263.186C216.41 263.625 215.151 263.989 213.682 264.293C220.92 264.683 226.153 265.584 230.867 266.396L230.874 266.397C231.407 266.489 231.933 266.579 232.455 266.668C237.842 267.583 242.785 268.291 249.936 267.933C257.232 267.569 265.784 266.471 273.418 265.45L274.407 265.317L275.453 265.177C282.131 264.279 288.067 263.481 291.259 263.481C294.723 263.481 299.619 264.012 304.613 264.562L305.121 264.618C310.039 265.161 315.096 265.718 319.375 265.893C322.731 266.031 329.433 265.299 336.676 264.266C338.608 263.991 340.56 263.697 342.471 263.398C343.788 262.788 344.952 262.064 345.942 261.25C333.629 261.295 317.502 261.309 305.957 261.185C296.368 261.081 291.357 261.563 285.711 262.106C285.4 262.136 285.087 262.166 284.771 262.196C278.639 262.783 271.542 263.397 257.417 263.397C245.342 263.397 237.406 262.785 231.752 262.35L231.75 262.35C230.784 262.276 229.885 262.206 229.043 262.146C223.265 261.733 220.577 261.795 217.41 263.186ZM349.481 256.236C336.881 256.291 318.672 256.322 306.01 256.185C296.155 256.079 290.94 256.58 285.229 257.13L284.841 257.167L284.295 257.219C278.286 257.794 271.352 258.397 257.417 258.397C245.544 258.397 237.786 257.8 232.142 257.365C231.169 257.29 230.258 257.22 229.399 257.159C223.575 256.743 219.788 256.681 215.4 258.608C213.923 259.256 210.989 259.83 206.551 260.231C202.212 260.623 196.723 260.83 190.346 260.885C177.598 260.995 161.463 260.5 144.207 259.726L142.298 259.64C126.463 258.93 119.624 258.623 113.915 258.841C109.736 259 106.124 259.444 100.059 260.191C97.5183 260.503 94.5471 260.869 90.9234 261.288C75.2654 263.102 59.3967 259.935 50.055 257.114C49.9846 256.499 49.982 255.858 50.0461 255.19C55.0541 256.06 60.9494 256.692 66.6323 256.454C70.5121 256.292 75.0394 255.867 80.1152 255.39C93.0054 254.18 109.432 252.638 127.769 254.223C134.835 254.833 140.809 255.479 146.117 256.053C159.899 257.543 169.185 258.547 181.413 257.182C188.019 256.445 191.866 255.578 195.005 254.871C195.885 254.672 196.708 254.487 197.522 254.32C201.118 253.582 204.852 253.124 213.419 253.488C221.135 253.816 226.5 254.732 231.54 255.593L231.54 255.593C232.078 255.684 232.613 255.776 233.146 255.866C238.72 256.805 244.115 257.579 251.852 257.195C259.445 256.818 268.264 255.691 275.934 254.674C276.537 254.594 277.131 254.514 277.716 254.437L277.729 254.435L277.77 254.429L277.778 254.428C284.747 253.501 290.394 252.749 293.253 252.749C296.407 252.749 301.026 253.238 306.165 253.8L306.757 253.865C311.648 254.4 316.898 254.974 321.388 255.157C325.31 255.316 332.531 254.503 339.737 253.484C343.095 253.009 346.507 252.481 349.673 251.964C349.98 253.428 349.903 254.87 349.481 256.236ZM347.332 247.278C345.52 245.041 342.688 242.892 338.688 241.035L339.274 243.922C334.984 244.793 328.14 246.079 321.528 247.112C315.901 247.99 310.224 248.723 306.458 248.802L306.709 248.83L307.222 248.886L307.223 248.886C312.179 249.428 317.277 249.986 321.591 250.161C324.978 250.298 331.737 249.566 339.037 248.533C341.821 248.14 344.644 247.708 347.332 247.278ZM293.68 247.751C292.964 247.666 292.252 247.58 291.549 247.495L291.006 247.429C286.341 246.866 282.19 246.382 279.367 246.382C276.814 246.382 271.731 247.129 265.393 248.06L265.392 248.06L265.388 248.061L265.385 248.061C265.046 248.111 264.704 248.162 264.358 248.212L263.749 248.302C256.807 249.319 248.802 250.449 241.903 250.827C238.061 251.037 234.851 250.902 231.907 250.583L232.376 250.663L232.377 250.663C232.916 250.755 233.449 250.846 233.976 250.935C239.407 251.85 244.393 252.559 251.604 252.201C258.96 251.836 267.581 250.738 275.276 249.717C275.96 249.626 276.639 249.536 277.31 249.446L277.326 249.444C284.058 248.546 290.039 247.749 293.253 247.749C293.393 247.749 293.535 247.75 293.68 247.751ZM224.627 249.448C221.452 249.027 217.876 248.673 213.632 248.493C204.758 248.115 200.602 248.584 196.517 249.422C195.619 249.606 194.743 249.803 193.83 250.009C190.713 250.711 187.166 251.509 180.859 252.213C169.21 253.513 160.623 252.585 147.129 251.127L147.129 251.126L147.129 251.126C141.763 250.546 135.62 249.882 128.2 249.241C109.376 247.615 92.098 249.234 79.1276 250.45L79.1273 250.45C74.2285 250.91 69.9442 251.311 66.4233 251.459C61.4354 251.667 56.2166 251.145 51.6829 250.396C52.3338 249.426 53.1741 248.539 54.1752 247.726C59.4268 249.066 66.9834 250.419 74.1802 250.086C77.7295 249.922 81.8528 249.495 86.4657 249.017C98.1283 247.807 112.92 246.273 129.477 247.853C135.841 248.461 141.234 249.105 146.034 249.678C158.541 251.171 167.019 252.184 178.15 250.812C184.16 250.071 187.672 249.197 190.516 248.489C191.309 248.291 192.05 248.107 192.779 247.942C195.989 247.215 199.329 246.758 207.056 247.12C214.01 247.447 218.841 248.358 223.403 249.218C223.813 249.295 224.22 249.372 224.627 249.448ZM66.6765 242.246C64.6106 242.772 62.6556 243.374 60.862 244.065C64.9022 244.793 69.5299 245.296 73.9493 245.092C77.1028 244.946 80.958 244.547 85.3757 244.09C97.1268 242.873 112.858 241.245 129.952 242.876C136.707 243.52 142.286 244.187 147.151 244.767C159.34 246.222 167.047 247.143 177.538 245.849C183.221 245.149 186.405 244.357 189.224 243.656C190.054 243.45 190.853 243.251 191.674 243.065C195.42 242.217 199.224 241.747 207.29 242.126C214.605 242.469 219.745 243.439 224.324 244.303C224.812 244.395 225.295 244.486 225.773 244.575C230.677 245.488 235.152 246.189 241.629 245.834C248.267 245.471 256.054 244.376 263.024 243.354C263.643 243.264 264.257 243.173 264.865 243.084L264.894 243.079L264.895 243.079C270.972 242.184 276.421 241.382 279.367 241.382C282.56 241.382 287.057 241.916 291.605 242.465L292.062 242.521C296.557 243.064 301.158 243.62 305.048 243.794C308.062 243.929 314.136 243.205 320.756 242.172C325.888 241.37 331.172 240.412 335.254 239.621C334.828 239.466 334.393 239.314 333.947 239.164C331.343 239.58 328.619 239.995 325.931 240.375C318.725 241.394 311.504 242.206 307.582 242.047C303.092 241.865 297.842 241.291 292.952 240.755L292.951 240.755L292.359 240.691C287.22 240.129 282.601 239.639 279.447 239.639C276.588 239.639 270.941 240.391 263.972 241.319L263.964 241.32C263.362 241.4 262.749 241.482 262.128 241.564C254.458 242.582 245.639 243.709 238.046 244.085C230.309 244.469 224.914 243.695 219.34 242.756C218.807 242.666 218.272 242.575 217.734 242.483C212.694 241.623 207.329 240.707 199.613 240.379C191.046 240.014 187.312 240.473 183.716 241.211C182.902 241.377 182.078 241.563 181.199 241.761C178.06 242.469 174.213 243.336 167.607 244.073C155.379 245.438 146.093 244.434 132.311 242.944C127.003 242.37 121.029 241.724 113.963 241.113C95.8 239.544 79.5109 241.042 66.6765 242.246ZM114.66 236.155C121.961 236.789 128.021 237.444 133.323 238.017C146.817 239.476 155.404 240.404 167.053 239.104C173.36 238.4 176.907 237.601 180.024 236.9C180.937 236.694 181.813 236.497 182.711 236.312C182.777 236.299 182.843 236.286 182.909 236.272C182.494 236.28 182.074 236.287 181.649 236.292C172.464 236.403 160.908 235.901 148.646 235.126L147.688 235.065C136.059 234.33 131.427 234.037 127.603 234.243C124.872 234.389 122.604 234.783 118.465 235.501C117.348 235.695 116.095 235.912 114.66 236.155ZM195.836 235.264C198.068 234.861 200.014 234.287 201.399 233.429C203.319 232.241 204.87 232.139 208.921 232.547C209.512 232.607 210.145 232.675 210.827 232.75L210.83 232.75L210.831 232.75C214.843 233.186 220.534 233.804 229.167 233.804C239.251 233.804 244.34 233.185 248.731 232.593L249.098 232.543L249.4 232.502C253.382 231.962 256.864 231.49 263.571 231.592C266.228 231.632 269.227 231.658 272.364 231.673C273.386 232.419 274.299 233.188 275.094 233.98C275.982 233.98 277.057 233.969 278.302 233.957C286.443 233.875 301.841 233.72 319.666 236.04C319.825 236.061 319.984 236.082 320.143 236.103C314.901 236.756 310.365 237.156 307.785 237.051C303.471 236.876 298.373 236.319 293.416 235.776L293.416 235.776L292.903 235.72C287.869 235.17 282.937 234.639 279.447 234.639C276.233 234.639 270.252 235.437 263.52 236.335C262.843 236.425 262.159 236.516 261.47 236.608C253.775 237.629 245.154 238.727 237.798 239.092C230.587 239.449 225.601 238.74 220.17 237.826C219.643 237.737 219.11 237.646 218.571 237.554L218.57 237.553C213.514 236.69 207.868 235.725 199.826 235.383C198.377 235.322 197.054 235.283 195.836 235.264ZM114.389 227.534C111.104 229.07 108.537 230.643 106.554 232.172C107.998 232.097 109.449 231.948 110.897 231.712C113.41 231.301 115.49 230.94 117.283 230.629L117.284 230.629L117.284 230.629L117.285 230.629L117.285 230.629C121.636 229.874 124.294 229.413 127.334 229.25C131.458 229.028 136.381 229.34 147.494 230.043L148.961 230.136C161.19 230.909 172.596 231.401 181.588 231.292C186.088 231.237 189.928 231.032 192.939 230.648C196.062 230.25 197.926 229.699 198.767 229.178C200.016 228.405 201.213 227.926 202.431 227.649C201.488 227.531 200.581 227.39 199.671 227.241C199.396 227.196 199.12 227.151 198.843 227.105L198.842 227.105C196.247 226.675 193.543 226.228 189.638 226.067C185.289 225.888 183.459 226.114 181.715 226.461C181.315 226.541 180.902 226.631 180.456 226.728C178.834 227.083 176.781 227.532 173.305 227.908C166.866 228.605 161.916 228.086 154.747 227.334C152.024 227.049 148.981 226.73 145.415 226.431C136.066 225.648 127.783 226.402 121.158 227.006L121.158 227.006C118.654 227.234 116.387 227.44 114.389 227.534ZM259.782 225.348C260.875 225.748 261.931 226.16 262.947 226.584C256.313 226.519 252.659 227.014 248.723 227.548C248.504 227.578 248.284 227.608 248.063 227.637C243.844 228.206 238.983 228.804 229.167 228.804C220.935 228.804 215.531 228.23 211.548 227.798C215.014 227.545 218.771 227.076 222.077 226.651L222.962 226.537C226.624 226.065 229.466 225.698 230.86 225.698C232.411 225.698 234.722 225.934 237.396 226.217L237.718 226.251L237.718 226.251C240.227 226.517 242.969 226.808 245.325 226.901C247.469 226.986 251.298 226.562 254.993 226.055C256.607 225.834 258.245 225.589 259.782 225.348Z" fill="white"/>
</g>
<path fill-rule="evenodd" clip-rule="evenodd" d="M155.175 118.328C155.127 118.34 155.078 118.352 155.029 118.364C155.582 118.436 156.14 118.518 156.672 118.596L156.705 118.601L156.804 118.615C158.252 118.828 159.628 119.03 160.778 119.1C159.435 118.676 158.045 118.282 156.616 117.921C156.123 118.075 155.638 118.214 155.175 118.328ZM148.162 117.73C148.873 117.928 149.689 118.155 150.517 118.338C150.343 118.364 150.168 118.391 149.995 118.419C149.234 118.54 148.36 118.696 147.454 118.858L146.892 118.959C144.629 119.363 142.212 119.774 140.186 119.909C138.721 120.006 137.632 119.877 136.478 119.646C138.162 119.261 139.868 118.698 141.294 118.218C141.476 118.156 141.654 118.096 141.827 118.038C142.642 117.762 143.351 117.523 143.968 117.338C144.336 117.227 144.63 117.149 144.858 117.1C145.034 117.062 145.123 117.052 145.146 117.049C145.15 117.049 145.152 117.049 145.152 117.049L145.152 117.049C145.608 117.052 146.479 117.263 147.945 117.67L148.162 117.73ZM123.885 117.529C125.19 117.67 126.161 117.994 127.15 118.4C125.703 118.429 124.702 118.606 123.699 118.883C123.391 118.968 123.108 119.053 122.826 119.138C121.934 119.408 121.044 119.677 119.351 119.931C117.984 120.136 116.77 120.187 115.498 120.13C115.763 120.071 116.033 120.003 116.308 119.925C118.338 119.351 119.63 118.608 120.452 118.135C120.647 118.023 120.816 117.925 120.962 117.85C121.309 117.669 121.567 117.571 121.91 117.514C122.288 117.451 122.879 117.421 123.885 117.529ZM101.458 118.061C102.419 118.277 103.299 118.498 104.121 118.715C102.652 118.558 101.223 118.485 99.8484 118.473C100.372 118.332 100.909 118.195 101.458 118.061ZM133.898 115.039C133.306 115.114 132.803 115.096 132.306 115C132.888 115.002 133.47 115.008 134.052 115.019C134.001 115.026 133.949 115.033 133.898 115.039ZM180.399 159H173.136C174.549 158.756 175.933 158.502 177.249 158.259C177.434 158.224 177.617 158.19 177.799 158.156C177.975 158.123 178.15 158.091 178.324 158.059L178.328 158.058L178.359 158.052L178.361 158.052C180.103 157.727 181.695 157.431 183.08 157.202C184.799 156.918 186.012 156.771 186.714 156.771C188.348 156.771 190.815 157.132 193.749 157.58L194.111 157.635C195.053 157.779 196.03 157.929 197.012 158.069C192.705 158.553 187.352 158.856 180.399 159ZM151.678 158.966L151.819 159H129.844C130.641 158.775 131.328 158.558 131.952 158.362L131.952 158.362L131.952 158.362C132.432 158.21 132.875 158.071 133.3 157.949C135.132 157.424 137.057 157.071 141.743 157.349C145.946 157.599 148.849 158.291 151.678 158.966ZM93.4999 157.918C96.4683 158.277 99.0814 158.648 101.451 159H88.9739L88.6362 159H88.6361C84.9808 159 76.6234 159.002 70.5217 158.389C71.6915 158.245 72.9013 158.105 74.1512 157.978C79.9491 157.387 86.5168 157.075 93.4999 157.918ZM59.1024 154.688C58.1035 154.747 57.0831 154.727 56.0686 154.65C55.18 154.225 54.3923 153.774 53.7035 153.291C55.4549 153.819 57.3659 154.297 59.3869 154.671C59.2911 154.677 59.1963 154.683 59.1024 154.688ZM103.634 154.271C102.053 154.032 100.351 153.78 98.4977 153.524C99.6927 153.597 101.005 153.679 102.454 153.769L103.165 153.813C111.563 154.335 119.554 154.7 126.298 154.739C125.438 154.929 124.456 155.116 123.296 155.297C118.926 155.978 115.319 155.85 110.968 155.321C109.041 155.087 106.992 154.778 104.652 154.424L104.629 154.421C104.303 154.371 103.972 154.321 103.634 154.271ZM145.596 152.41C145.466 152.49 145.33 152.566 145.189 152.639C148.259 153.008 150.672 153.585 152.831 154.1C153.134 154.173 153.433 154.244 153.728 154.314C156.728 155.02 159.362 155.539 163.196 155.273C167.234 154.993 172 154.147 176.337 153.342L176.78 153.26L177.428 153.139L177.428 153.139C179.17 152.815 180.824 152.507 182.265 152.269C183.961 151.988 185.549 151.771 186.714 151.771C188.816 151.771 191.718 152.212 194.504 152.637L194.755 152.676L194.756 152.676C197.573 153.106 200.378 153.535 202.731 153.669C204.412 153.764 208.021 153.235 212.166 152.416C213.726 152.107 215.31 151.769 216.816 151.431C216.944 151.321 217.068 151.208 217.188 151.091C210.275 151.125 201.414 151.133 195.02 151.037C189.695 150.958 186.939 151.325 183.765 151.748L183.23 151.819C179.706 152.287 175.618 152.775 167.536 152.775C160.611 152.775 156.041 152.287 152.833 151.944L152.833 151.944C152.288 151.886 151.783 151.832 151.312 151.785C148.085 151.466 146.984 151.566 145.596 152.41ZM201.316 146.097C199.1 146.085 196.987 146.066 195.094 146.038C189.401 145.953 186.362 146.358 183.1 146.793L182.573 146.863C179.218 147.308 175.355 147.775 167.536 147.775C167.034 147.775 166.546 147.773 166.07 147.768C170.073 147.385 174.473 146.6 178.297 145.897C178.667 145.829 179.032 145.761 179.39 145.695L179.405 145.692L179.417 145.69C181.173 145.366 182.778 145.069 184.175 144.84C185.907 144.556 187.133 144.409 187.845 144.409C189.495 144.409 191.985 144.77 194.941 145.218L195.305 145.273C197.247 145.568 199.335 145.885 201.316 146.097ZM207.389 146.114C211.804 146.116 216.216 146.099 219.808 146.077C219.925 145.342 219.952 144.584 219.882 143.814C218.149 144.204 216.295 144.601 214.468 144.959C212.045 145.434 209.536 145.871 207.389 146.114ZM218.177 139.072C217.138 137.482 215.612 135.962 213.534 134.634L214.318 137.419C211.865 138.109 207.958 139.127 204.176 139.946C202.588 140.29 201.004 140.603 199.548 140.842C201.121 141.057 202.628 141.23 203.986 141.306C205.686 141.402 209.329 140.872 213.506 140.053C215.073 139.745 216.663 139.408 218.177 139.072ZM154.787 147.122C154.292 147.071 153.822 147.021 153.375 146.974L153.373 146.973C152.818 146.914 152.298 146.859 151.805 146.81C148.457 146.478 145.889 146.378 142.996 148.14C142.42 148.49 141.022 148.916 138.529 149.228C136.148 149.527 133.099 149.687 129.512 149.73C122.344 149.816 113.244 149.43 103.475 148.823L102.263 148.747C93.4238 148.197 89.4627 147.951 86.1402 148.126C83.6818 148.256 81.5211 148.625 78.0271 149.221C76.5973 149.465 74.9443 149.747 72.9562 150.066C64.0919 151.489 55.02 148.826 50.0005 146.627C49.9996 146.539 49.9999 146.451 50.0014 146.361C52.8852 147.034 56.2439 147.507 59.5118 147.318C61.497 147.202 63.79 146.917 66.2546 146.598C66.5371 146.561 66.8223 146.524 67.1103 146.487L67.1105 146.487C69.3641 146.194 71.7882 145.878 74.384 145.616C80.2295 145.025 86.8525 144.713 93.895 145.556C97.5056 145.989 100.595 146.44 103.36 146.853C103.705 146.904 104.045 146.955 104.381 147.006L104.382 147.006C106.729 147.358 108.874 147.679 110.894 147.923C115.566 148.486 119.692 148.649 124.694 147.875C128.555 147.278 130.852 146.559 132.636 146.001C133.12 145.85 133.566 145.71 133.996 145.588C135.847 145.062 137.792 144.708 142.519 144.987C146.759 145.237 149.688 145.93 152.539 146.605C152.843 146.677 153.147 146.748 153.451 146.819C153.895 146.923 154.339 147.025 154.787 147.122ZM51.2234 141.512C53.6935 142.082 56.5346 142.482 59.2222 142.326C59.5417 142.308 59.8722 142.284 60.2138 142.256C57.1411 141.982 54.2055 141.196 51.9644 140.409C51.6904 140.76 51.4426 141.127 51.2234 141.512ZM85.7796 140.043C88.5814 140.071 91.4945 140.233 94.4898 140.592C96.8482 140.874 98.9863 141.164 100.949 141.445C99.0958 141.15 97.0803 140.845 94.8436 140.549C91.7195 140.136 88.6856 140.002 85.7796 140.043ZM117.222 143.395C119.021 143.369 120.867 143.207 122.866 142.866C126.4 142.262 128.516 141.531 130.133 140.972C130.567 140.822 130.965 140.685 131.344 140.565C132.825 140.1 134.381 139.767 137.887 139.927C135.719 140.03 134.169 140.34 132.628 140.779C132.086 140.933 131.569 141.094 131.039 141.26C129.285 141.807 127.388 142.399 123.929 142.934C121.549 143.302 119.392 143.434 117.222 143.395ZM159.474 142.843C160.879 142.99 162.386 143.031 164.142 142.91C168.215 142.63 173.02 141.784 177.392 140.979C177.756 140.912 178.118 140.845 178.476 140.779L178.49 140.777L178.491 140.777C180.248 140.452 181.915 140.144 183.366 139.906C183.551 139.876 183.735 139.846 183.916 139.817C182.307 139.57 180.963 139.406 179.975 139.406C179.375 139.406 178.303 139.546 176.731 139.83C175.471 140.058 174.024 140.354 172.434 140.678C172.101 140.746 171.762 140.815 171.417 140.885C167.695 141.642 163.34 142.497 159.474 142.843ZM57.4319 136.425C57.262 136.502 57.094 136.58 56.9281 136.659C58.9921 137.145 61.2962 137.464 63.4768 137.324C65.0682 137.222 66.97 136.964 69.2288 136.641C69.4818 136.605 69.7388 136.568 69.9995 136.53L69.9996 136.53L69.9997 136.53L69.9997 136.53C72.0354 136.238 74.303 135.912 76.7296 135.641C79.1181 135.374 81.6801 135.158 84.3798 135.074C77.9671 134.464 71.9335 134.772 66.5576 135.315C63.9618 135.578 61.5377 135.893 59.2841 136.186L59.2839 136.186C58.9959 136.223 58.7106 136.261 58.4282 136.297C58.0928 136.341 57.7606 136.383 57.4319 136.425ZM94.0821 129.864C92.7564 129.963 91.6805 130.206 89.7237 130.676C92.1334 130.994 94.2961 131.312 96.2727 131.607C96.621 131.659 96.963 131.71 97.299 131.761C99.6566 132.114 101.723 132.424 103.666 132.658C108.053 133.187 111.693 133.316 116.103 132.633C118.489 132.264 120.132 131.868 121.497 131.478C116.832 131.408 111.416 131.051 105.768 130.556L105.493 130.532C98.6367 129.931 96.1279 129.711 94.0821 129.864ZM135.467 129.725C135.906 129.495 136.313 129.229 136.673 128.92C137.122 128.534 137.403 128.439 137.689 128.395C138.099 128.333 138.684 128.359 139.849 128.522C140.175 128.567 140.528 128.62 140.911 128.678L140.912 128.678C143.19 129.022 146.517 129.523 151.525 129.523C157.35 129.523 160.326 129.024 162.882 128.547L163.263 128.475C165.486 128.057 167.342 127.708 170.99 127.785C172.65 127.82 174.542 127.841 176.516 127.852C176.893 128.268 177.239 128.693 177.554 129.127C178.057 129.127 178.666 129.118 179.371 129.108C183.774 129.047 191.925 128.933 201.441 130.509C199.131 130.872 197.248 131.067 196.16 131.005C193.786 130.872 190.957 130.443 188.118 130.012L187.864 129.974C185.055 129.548 182.133 129.108 180.018 129.108C178.848 129.108 177.249 129.325 175.54 129.605C174.088 129.843 172.421 130.151 170.665 130.476L170.665 130.476C170.302 130.543 169.935 130.611 169.565 130.679C165.194 131.483 160.388 132.33 156.316 132.61C152.445 132.876 149.786 132.356 146.761 131.65C146.464 131.58 146.164 131.509 145.858 131.436L145.857 131.436C143.086 130.78 139.904 130.025 135.467 129.725ZM198.868 135.886C197.718 135.998 196.695 136.044 195.879 135.998C193.262 135.85 190.226 135.389 187.478 134.972L187.114 134.917C184.159 134.469 181.669 134.108 180.018 134.108C179.306 134.108 178.081 134.255 176.349 134.539C174.952 134.768 173.346 135.065 171.591 135.389C171.224 135.457 170.85 135.526 170.47 135.596C166.135 136.394 161.058 137.295 156.659 137.598C155.353 137.688 154.158 137.7 153.043 137.654C154.672 137.94 156.372 138.069 158.478 137.909C162.134 137.631 166.459 136.79 170.421 135.985C170.754 135.918 171.086 135.85 171.414 135.783L171.415 135.783L171.416 135.783L171.416 135.783L171.416 135.783C173.006 135.458 174.521 135.149 175.84 134.91C177.385 134.63 178.869 134.406 179.975 134.406C181.935 134.406 184.624 134.854 187.153 135.278L187.369 135.314C189.951 135.746 192.493 136.172 194.619 136.304C195.278 136.345 196.425 136.258 197.994 136.024C198.277 135.982 198.569 135.936 198.868 135.886ZM129.846 135.795C131.814 135.177 133.795 134.811 137.215 134.9C136.425 134.812 135.588 134.739 134.692 134.686C129.966 134.408 128.02 134.761 126.17 135.287C125.74 135.409 125.293 135.549 124.809 135.7C123.025 136.258 120.729 136.977 116.868 137.574C115.076 137.852 113.397 138.009 111.764 138.07C115.327 138.499 118.381 138.56 122.024 137.937C125.119 137.408 126.802 136.829 128.386 136.283C128.869 136.116 129.343 135.953 129.846 135.795ZM85.643 124.63C84.4656 125.454 83.4697 126.287 82.6317 127.108C83.15 127.048 83.6674 126.96 84.182 126.844C85.5204 126.541 86.6579 126.267 87.6594 126.026C90.1974 125.416 91.8618 125.015 93.7104 124.878C96.1703 124.694 99.0819 124.95 105.209 125.488L106.204 125.575C113.121 126.182 119.522 126.563 124.539 126.478C127.052 126.436 129.141 126.277 130.74 125.995C132.444 125.694 133.197 125.315 133.416 125.126C133.77 124.823 134.13 124.559 134.502 124.334L134.491 124.332C134.333 124.296 134.176 124.26 134.02 124.224C132.554 123.888 131.13 123.562 129.045 123.443C126.705 123.309 125.833 123.481 125.028 123.703C124.83 123.757 124.616 123.822 124.378 123.895C123.457 124.174 122.178 124.563 120.092 124.876C117.378 125.283 115.14 125.194 112.665 124.905C111.606 124.781 110.482 124.617 109.274 124.442L109.273 124.442L108.748 124.365C107.325 124.159 105.744 123.936 103.899 123.721C100.381 123.313 97.0567 123.462 94.0855 123.753C92.764 123.883 91.5302 124.038 90.3668 124.185L90.3667 124.185L89.9244 124.241C88.6594 124.4 87.4373 124.548 86.3668 124.608C86.1259 124.622 85.8844 124.629 85.643 124.63ZM145.643 124.25C146.379 124.128 147.095 124.002 147.77 123.881L148.353 123.777L148.353 123.777C149.258 123.615 150.072 123.469 150.78 123.356C151.678 123.214 152.225 123.155 152.488 123.155C153.234 123.155 154.42 123.319 155.978 123.548L156.185 123.578C157.275 123.738 158.496 123.918 159.646 124.026C157.733 124.305 155.297 124.523 151.525 124.523C149.184 124.523 147.263 124.408 145.643 124.25ZM169.507 122.777L169.596 122.776L169.701 122.775L169.647 122.746L169.507 122.777Z" fill="white"/>
<defs>
<filter id="filter0_d_666_397" x="0" y="31" width="379.998" height="311" filterUnits="userSpaceOnUse" color-interpolation-filters="sRGB">
<feFlood flood-opacity="0" result="BackgroundImageFix"/>
<feColorMatrix in="SourceAlpha" type="matrix" values="0 0 0 0 0 0 0 0 0 0 0 0 0 0 0 0 0 0 127 0" result="hardAlpha"/>
<feOffset dx="-10" dy="30"/>
<feGaussianBlur stdDeviation="20"/>
<feComposite in2="hardAlpha" operator="out"/>
<feColorMatrix type="matrix" values="0 0 0 0 0 0 0 0 0 0 0 0 0 0 0 0 0 0 0.25 0"/>
<feBlend mode="normal" in2="BackgroundImageFix" result="effect1_dropShadow_666_397"/>
<feBlend mode="normal" in="SourceGraphic" in2="effect1_dropShadow_666_397" result="shape"/>
</filter>
</defs>
</svg>
