<svg width="10" height="10" viewBox="0 0 226 250" fill="none" xmlns="http://www.w3.org/2000/svg">
<path d="M113.236 150C109.695 150 106.728 148.8 104.336 146.4C101.936 144.008 100.736 141.042 100.736 137.5C100.736 133.958 101.936 130.987 104.336 128.587C106.728 126.196 109.695 125 113.236 125C116.778 125 119.749 126.196 122.149 128.587C124.541 130.987 125.736 133.958 125.736 137.5C125.736 141.042 124.541 144.008 122.149 146.4C119.749 148.8 116.778 150 113.236 150ZM63.2363 150C59.6947 150 56.7238 148.8 54.3238 146.4C51.9322 144.008 50.7363 141.042 50.7363 137.5C50.7363 133.958 51.9322 130.987 54.3238 128.587C56.7238 126.196 59.6947 125 63.2363 125C66.778 125 69.7488 126.196 72.1488 128.587C74.5405 130.987 75.7363 133.958 75.7363 137.5C75.7363 141.042 74.5405 144.008 72.1488 146.4C69.7488 148.8 66.778 150 63.2363 150ZM163.236 150C159.695 150 156.728 148.8 154.336 146.4C151.936 144.008 150.736 141.042 150.736 137.5C150.736 133.958 151.936 130.987 154.336 128.587C156.728 126.196 159.695 125 163.236 125C166.778 125 169.745 126.196 172.136 128.587C174.536 130.987 175.736 133.958 175.736 137.5C175.736 141.042 174.536 144.008 172.136 146.4C169.745 148.8 166.778 150 163.236 150ZM113.236 200C109.695 200 106.728 198.8 104.336 196.4C101.936 194.008 100.736 191.042 100.736 187.5C100.736 183.958 101.936 180.992 104.336 178.6C106.728 176.2 109.695 175 113.236 175C116.778 175 119.749 176.2 122.149 178.6C124.541 180.992 125.736 183.958 125.736 187.5C125.736 191.042 124.541 194.008 122.149 196.4C119.749 198.8 116.778 200 113.236 200ZM63.2363 200C59.6947 200 56.7238 198.8 54.3238 196.4C51.9322 194.008 50.7363 191.042 50.7363 187.5C50.7363 183.958 51.9322 180.992 54.3238 178.6C56.7238 176.2 59.6947 175 63.2363 175C66.778 175 69.7488 176.2 72.1488 178.6C74.5405 180.992 75.7363 183.958 75.7363 187.5C75.7363 191.042 74.5405 194.008 72.1488 196.4C69.7488 198.8 66.778 200 63.2363 200ZM163.236 200C159.695 200 156.728 198.8 154.336 196.4C151.936 194.008 150.736 191.042 150.736 187.5C150.736 183.958 151.936 180.992 154.336 178.6C156.728 176.2 159.695 175 163.236 175C166.778 175 169.745 176.2 172.136 178.6C174.536 180.992 175.736 183.958 175.736 187.5C175.736 191.042 174.536 194.008 172.136 196.4C169.745 198.8 166.778 200 163.236 200ZM25.7363 250C18.8613 250 12.9738 247.554 8.07383 242.663C3.18216 237.763 0.736328 231.875 0.736328 225V50C0.736328 43.125 3.18216 37.2417 8.07383 32.35C12.9738 27.45 18.8613 25 25.7363 25H38.2363V0H63.2363V25H163.236V0H188.236V25H200.736C207.611 25 213.499 27.45 218.399 32.35C223.291 37.2417 225.736 43.125 225.736 50V225C225.736 231.875 223.291 237.763 218.399 242.663C213.499 247.554 207.611 250 200.736 250H25.7363ZM25.7363 225H200.736V100H25.7363V225Z" fill="#2568CD"/>
</svg>
