<svg width="380" height="372" viewBox="0 0 380 372" fill="none" xmlns="http://www.w3.org/2000/svg">
<g filter="url(#filter0_d_666_342)">
<path d="M195.808 129H93.5794C88.8059 129 75.0655 129.091 68.5191 125.816C54.1992 118.652 48.631 109.1 50.2805 88.8025C52.4475 62.137 71.7022 59.351 82.4421 57.3609C84.7705 40.645 97.1599 9.99944 141.711 10C163.352 10.0003 185.466 24.3277 192.626 48.2072C196.869 48.2072 207.847 46.9005 220.868 52.5852C242.746 62.137 243.542 99.5483 234.791 111.488C226.673 122.564 219.675 127.806 195.808 129Z" fill="white"/>
<path d="M294.882 143.932C294.882 196.292 252.313 238.738 199.802 238.738C147.291 238.738 104.723 196.292 104.723 143.932C104.723 91.5725 147.291 49.1263 199.802 49.1263C252.313 49.1263 294.882 91.5725 294.882 143.932Z" fill="#FFDD4D"/>
<path d="M226.968 38.5923H171.128L199.048 10L226.968 38.5923Z" fill="#FFDD4D"/>
<path d="M157.561 43.4341L112.837 76.7733L118.029 37.2035L157.561 43.4341Z" fill="#FFDD4D"/>
<path d="M103.684 86.9463L92.5045 141.499L70 108.498L103.684 86.9463Z" fill="#FFDD4D"/>
<path d="M90.6202 149.805L107.954 202.735L72.0286 185.145L90.6202 149.805Z" fill="#FFDD4D"/>
<path d="M286.546 78.1918L242.209 44.3427L281.809 38.5651L286.546 78.1918Z" fill="#FFDD4D"/>
<path d="M115.039 213.156L160.909 244.909L121.621 252.52L115.039 213.156Z" fill="#FFDD4D"/>
<path d="M310.884 143.291L294.341 90.1109L330 108.23L310.884 143.291Z" fill="#FFDD4D"/>
<path d="M291.864 204.396L309.167 151.457L327.779 186.786L291.864 204.396Z" fill="#FFDD4D"/>
<path d="M240.598 244.32L285.712 211.507L280.053 251.013L240.598 244.32Z" fill="#FFDD4D"/>
<path d="M171.128 249.408H226.968L199.048 278L171.128 249.408Z" fill="#FFDD4D"/>
<path d="M310.925 302H220.533C216.313 302 204.163 302.081 198.375 299.164C185.713 292.782 180.79 284.274 182.248 266.194C184.164 242.441 201.189 239.96 210.686 238.187C212.744 223.297 223.699 196 263.092 196C282.227 196 301.781 208.763 308.112 230.033C311.863 230.033 321.57 228.869 333.083 233.933C352.428 242.441 353.132 275.766 345.394 286.401C338.216 296.267 332.029 300.936 310.925 302Z" fill="white" fill-opacity="0.5"/>
</g>
<defs>
<filter id="filter0_d_666_342" x="0" y="0" width="380" height="372" filterUnits="userSpaceOnUse" color-interpolation-filters="sRGB">
<feFlood flood-opacity="0" result="BackgroundImageFix"/>
<feColorMatrix in="SourceAlpha" type="matrix" values="0 0 0 0 0 0 0 0 0 0 0 0 0 0 0 0 0 0 127 0" result="hardAlpha"/>
<feOffset dx="-10" dy="30"/>
<feGaussianBlur stdDeviation="20"/>
<feComposite in2="hardAlpha" operator="out"/>
<feColorMatrix type="matrix" values="0 0 0 0 0 0 0 0 0 0 0 0 0 0 0 0 0 0 0.25 0"/>
<feBlend mode="normal" in2="BackgroundImageFix" result="effect1_dropShadow_666_342"/>
<feBlend mode="normal" in="SourceGraphic" in2="effect1_dropShadow_666_342" result="shape"/>
</filter>
</defs>
</svg>
