<svg width="380" height="345" viewBox="0 0 380 345" fill="none" xmlns="http://www.w3.org/2000/svg">
<g filter="url(#filter0_d_667_436)">
<path d="M310.398 218.207H218.785C214.507 218.207 202.193 218.289 196.327 215.339C183.494 208.885 178.504 200.279 179.982 181.993C181.924 157.97 199.179 155.46 208.804 153.667C210.89 138.608 221.993 110.999 261.918 111C281.312 111 301.13 123.908 307.546 145.421C311.349 145.421 321.187 144.244 332.855 149.365C352.462 157.97 353.175 191.674 345.332 202.431C338.057 212.409 331.787 217.131 310.398 218.207Z" fill="#D8D8D8"/>
<path d="M215.116 245.685H99.3501C93.9446 245.685 78.3847 245.788 70.9714 242.081C54.7552 233.973 48.4497 223.162 50.3176 200.189C52.7715 170.009 74.5759 166.856 86.7381 164.603C89.3748 145.684 103.405 110.999 153.855 111C178.362 111 203.405 127.216 211.513 154.243C216.318 154.243 228.749 152.764 243.494 159.198C268.27 170.009 269.171 212.351 259.261 225.865C250.067 238.401 242.144 244.333 215.116 245.685Z" fill="white" fill-opacity="0.5"/>
<path d="M80.6309 209.033C90.5475 210.041 112.801 210.545 122.482 204.495C134.584 196.931 156.77 183.821 171.897 196.427C183.999 206.511 206.858 200.629 216.774 196.427" stroke="#A2E1FB" stroke-width="8" stroke-linecap="round"/>
<path d="M117.943 243.32C126.011 231.218 147.29 210.646 167.863 225.168C193.579 243.32 220.303 229.201 235.934 225.168C248.44 221.941 257.953 227.521 261.146 230.715" stroke="#A2E1FB" stroke-width="8" stroke-linecap="round"/>
<path d="M93.2363 263.489C103.489 266.515 122.482 269.036 132.062 266.515C142.757 263.701 163.325 259.96 176.939 268.028C187.831 274.482 210.723 267.691 221.816 263.489" stroke="#A2E1FB" stroke-width="8" stroke-linecap="round"/>
</g>
<defs>
<filter id="filter0_d_667_436" x="0" y="101" width="380" height="243.688" filterUnits="userSpaceOnUse" color-interpolation-filters="sRGB">
<feFlood flood-opacity="0" result="BackgroundImageFix"/>
<feColorMatrix in="SourceAlpha" type="matrix" values="0 0 0 0 0 0 0 0 0 0 0 0 0 0 0 0 0 0 127 0" result="hardAlpha"/>
<feOffset dx="-10" dy="30"/>
<feGaussianBlur stdDeviation="20"/>
<feComposite in2="hardAlpha" operator="out"/>
<feColorMatrix type="matrix" values="0 0 0 0 0 0 0 0 0 0 0 0 0 0 0 0 0 0 0.25 0"/>
<feBlend mode="normal" in2="BackgroundImageFix" result="effect1_dropShadow_667_436"/>
<feBlend mode="normal" in="SourceGraphic" in2="effect1_dropShadow_667_436" result="shape"/>
</filter>
</defs>
</svg>
