<svg width="124" height="173" viewBox="0 0 124 173" fill="none" xmlns="http://www.w3.org/2000/svg">
<path d="M113.397 76.2015L67.8231 3.62899C67.1619 2.70093 66.2884 1.94435 65.2755 1.42232C64.2626 0.900295 63.1395 0.62793 62 0.62793C60.8605 0.62793 59.7374 0.900295 58.7245 1.42232C57.7116 1.94435 56.8381 2.70093 56.1769 3.62899L10.3963 76.5452C4.03609 86.8045 0.493265 98.5594 0.125 110.625C0.125 127.035 6.64395 142.773 18.2478 154.377C29.8516 165.981 45.5897 172.5 62 172.5C78.4103 172.5 94.1484 165.981 105.752 154.377C117.356 142.773 123.875 127.035 123.875 110.625C123.48 98.427 119.865 86.5509 113.397 76.2015ZM62 158.75C49.2415 158.733 37.0102 153.658 27.9886 144.636C18.9669 135.614 13.8914 123.383 13.875 110.625C14.2404 101.011 17.1283 91.6617 22.2488 83.5165L28.6769 73.2727L97.9356 142.532C93.4374 147.628 87.9073 151.71 81.712 154.507C75.5167 157.304 68.7975 158.746 62 158.75Z" fill="#094094"/>
</svg>
