<svg width="380" height="346" viewBox="0 0 380 346" fill="none" xmlns="http://www.w3.org/2000/svg">
<g filter="url(#filter0_d_666_344)">
<path d="M280.223 249.793H118.81C111.273 249.793 89.5772 249.936 79.2407 244.768C56.6302 233.463 47.8384 218.389 50.4429 186.358C53.8644 144.277 84.2666 139.881 101.224 136.74C104.901 110.361 124.463 61.9991 194.807 62C228.977 62.0004 263.894 84.6105 275.2 122.295C281.899 122.295 299.233 120.233 319.792 129.204C354.336 144.277 355.592 203.316 341.775 222.158C328.957 239.637 317.908 247.909 280.223 249.793Z" fill="white"/>
<path d="M109.335 275.544C90.0708 275.544 111.543 244.14 118.452 231.579C118.754 239.116 119.356 247.81 118.452 256.073C116.872 270.519 114.986 275.544 109.335 275.544Z" fill="#A2E1FB"/>
<path d="M165.861 266.751C146.597 266.751 168.07 235.347 174.978 222.786C175.28 230.323 175.882 239.017 174.978 247.28C173.398 261.726 171.512 266.751 165.861 266.751Z" fill="#A2E1FB"/>
<path d="M222.387 275.544C203.123 275.544 224.596 244.14 231.505 231.579C231.806 239.116 232.408 247.81 231.505 256.073C229.925 270.519 228.038 275.544 222.387 275.544Z" fill="#A2E1FB"/>
<path d="M278.913 262.982C259.65 262.982 281.122 231.579 288.031 219.017C288.333 226.554 288.935 235.249 288.031 243.512C286.451 257.958 284.564 262.982 278.913 262.982Z" fill="#A2E1FB"/>
</g>
<defs>
<filter id="filter0_d_666_344" x="0" y="52" width="380" height="293.544" filterUnits="userSpaceOnUse" color-interpolation-filters="sRGB">
<feFlood flood-opacity="0" result="BackgroundImageFix"/>
<feColorMatrix in="SourceAlpha" type="matrix" values="0 0 0 0 0 0 0 0 0 0 0 0 0 0 0 0 0 0 127 0" result="hardAlpha"/>
<feOffset dx="-10" dy="30"/>
<feGaussianBlur stdDeviation="20"/>
<feComposite in2="hardAlpha" operator="out"/>
<feColorMatrix type="matrix" values="0 0 0 0 0 0 0 0 0 0 0 0 0 0 0 0 0 0 0.25 0"/>
<feBlend mode="normal" in2="BackgroundImageFix" result="effect1_dropShadow_666_344"/>
<feBlend mode="normal" in="SourceGraphic" in2="effect1_dropShadow_666_344" result="shape"/>
</filter>
</defs>
</svg>
