<svg width="380" height="362" viewBox="0 0 380 362" fill="none" xmlns="http://www.w3.org/2000/svg">
<g filter="url(#filter0_d_666_429)">
<path d="M280.223 251.793H118.81C111.273 251.793 89.5772 251.936 79.2407 246.768C56.6302 235.463 47.8384 220.389 50.4429 188.358C53.8644 146.277 84.2666 141.881 101.224 138.74C104.901 112.361 124.463 63.9991 194.807 64C228.977 64.0004 263.894 86.6105 275.2 124.295C281.899 124.295 299.233 122.233 319.792 131.204C354.336 146.277 355.592 205.316 341.775 224.158C328.957 241.637 317.908 249.909 280.223 251.793Z" fill="white"/>
<circle cx="106.189" cy="277.189" r="13.1895" fill="url(#paint0_radial_666_429)" fill-opacity="0.85"/>
<circle cx="262.189" cy="278.189" r="13.1895" fill="url(#paint1_radial_666_429)" fill-opacity="0.85"/>
<circle cx="143.189" cy="252.189" r="13.1895" fill="url(#paint2_radial_666_429)" fill-opacity="0.85"/>
<circle cx="304.189" cy="252.189" r="13.1895" fill="url(#paint3_radial_666_429)" fill-opacity="0.85"/>
<circle cx="187.189" cy="278.189" r="13.1895" fill="url(#paint4_radial_666_429)" fill-opacity="0.85"/>
<circle cx="229.189" cy="251.189" r="13.1895" fill="url(#paint5_radial_666_429)" fill-opacity="0.85"/>
</g>
<defs>
<filter id="filter0_d_666_429" x="0" y="54" width="380" height="307.379" filterUnits="userSpaceOnUse" color-interpolation-filters="sRGB">
<feFlood flood-opacity="0" result="BackgroundImageFix"/>
<feColorMatrix in="SourceAlpha" type="matrix" values="0 0 0 0 0 0 0 0 0 0 0 0 0 0 0 0 0 0 127 0" result="hardAlpha"/>
<feOffset dx="-10" dy="30"/>
<feGaussianBlur stdDeviation="20"/>
<feComposite in2="hardAlpha" operator="out"/>
<feColorMatrix type="matrix" values="0 0 0 0 0 0 0 0 0 0 0 0 0 0 0 0 0 0 0.25 0"/>
<feBlend mode="normal" in2="BackgroundImageFix" result="effect1_dropShadow_666_429"/>
<feBlend mode="normal" in="SourceGraphic" in2="effect1_dropShadow_666_429" result="shape"/>
</filter>
<radialGradient id="paint0_radial_666_429" cx="0" cy="0" r="1" gradientUnits="userSpaceOnUse" gradientTransform="translate(106.189 277.189) rotate(90) scale(13.1895)">
<stop stop-color="#4A79FF"/>
<stop offset="1" stop-color="#8AD5FF" stop-opacity="0.42"/>
</radialGradient>
<radialGradient id="paint1_radial_666_429" cx="0" cy="0" r="1" gradientUnits="userSpaceOnUse" gradientTransform="translate(262.189 278.189) rotate(90) scale(13.1895)">
<stop stop-color="#4A79FF"/>
<stop offset="1" stop-color="#8AD5FF" stop-opacity="0.42"/>
</radialGradient>
<radialGradient id="paint2_radial_666_429" cx="0" cy="0" r="1" gradientUnits="userSpaceOnUse" gradientTransform="translate(143.189 252.189) rotate(90) scale(13.1895)">
<stop stop-color="#4A79FF"/>
<stop offset="1" stop-color="#8AD5FF" stop-opacity="0.42"/>
</radialGradient>
<radialGradient id="paint3_radial_666_429" cx="0" cy="0" r="1" gradientUnits="userSpaceOnUse" gradientTransform="translate(304.189 252.189) rotate(90) scale(13.1895)">
<stop stop-color="#4A79FF"/>
<stop offset="1" stop-color="#8AD5FF" stop-opacity="0.42"/>
</radialGradient>
<radialGradient id="paint4_radial_666_429" cx="0" cy="0" r="1" gradientUnits="userSpaceOnUse" gradientTransform="translate(187.189 278.189) rotate(90) scale(13.1895)">
<stop stop-color="#4A79FF"/>
<stop offset="1" stop-color="#8AD5FF" stop-opacity="0.42"/>
</radialGradient>
<radialGradient id="paint5_radial_666_429" cx="0" cy="0" r="1" gradientUnits="userSpaceOnUse" gradientTransform="translate(229.189 251.189) rotate(90) scale(13.1895)">
<stop stop-color="#4A79FF"/>
<stop offset="1" stop-color="#8AD5FF" stop-opacity="0.42"/>
</radialGradient>
</defs>
</svg>
