<svg width="20" height="20" viewBox="0 0 143 205" fill="none" xmlns="http://www.w3.org/2000/svg">
<path d="M71.4994 0.416992C31.9931 0.416992 0.0410156 32.3691 0.0410156 71.8753C0.0410156 125.469 71.4994 204.584 71.4994 204.584C71.4994 204.584 142.958 125.469 142.958 71.8753C142.958 32.3691 111.006 0.416992 71.4994 0.416992ZM71.4994 97.3962C64.7308 97.3962 58.2395 94.7074 53.4534 89.9213C48.6673 85.1352 45.9785 78.6439 45.9785 71.8753C45.9785 65.1068 48.6673 58.6155 53.4534 53.8294C58.2395 49.0433 64.7308 46.3545 71.4994 46.3545C78.2679 46.3545 84.7592 49.0433 89.5453 53.8294C94.3314 58.6155 97.0202 65.1068 97.0202 71.8753C97.0202 78.6439 94.3314 85.1352 89.5453 89.9213C84.7592 94.7074 78.2679 97.3962 71.4994 97.3962Z" fill="#2568CD"/>
</svg>
