<?xml version="1.0" encoding="utf-8"?>
<svg id="master-artboard" viewBox="0 0 1400 980" version="1.1" xmlns="http://www.w3.org/2000/svg" x="0px" y="0px" style="enable-background:new 0 0 1400 980;" width="1400px" height="980px"><rect id="ee-background" x="0" y="0" width="1400" height="980" style="fill: white; fill-opacity: 0; pointer-events: none;"/><defs><style id="ee-google-fonts">@import url(https://fonts.googleapis.com/css?family=Alegreya+SC:700,900,400,400italic,700italic,900italic);</style></defs>

































































































<path d="M 564.5315551757812 242.95545959472656 C 564.5315551757812 242.95545959472656 710.2457275390625 157.53680419921875 825.8121337890625 253.0047149658203 C 941.3785400390625 348.4726257324219 1095.7886441260157 445.6151414092126 922.954833984375 623.1521606445312 C 750.1209716796875 800.6891784667969 549.4576416015625 726.9945068359375 492.51190185546875 598.0291137695312 C 435.566162109375 469.063720703125 464.8553466796875 382.8577575683594 479.1128845214844 335.0736389160156 C 493.37042236328125 287.2895202636719 569.5562133789062 242.95545959472656 564.5315551757812 242.95545959472656 Z" style="fill-opacity: 1; stroke: rgb(255, 193, 227); stroke-opacity: 1; stroke-width: 10; paint-order: fill; fill: rgb(255, 193, 227);" transform="matrix(1.7515314817428589, 0, 0, 1.7515314817428589, -562.5307384232386, -346.80223793955724)"/><path d="M 219.5072021484375 16.847274780273438" style="fill: rgb(191, 95, 130); fill-opacity: 1; stroke: rgb(191, 95, 130); stroke-opacity: 1; stroke-width: 10; paint-order: stroke;"/><path d="M 123.98030090332031 260.880126953125 L 123.98030090332031 251.16014099121094 C 123.98030090332031 250.4734649658203 123.71697235107422 250.13014221191406 123.1903076171875 250.13014221191406 L 122.28030395507812 250.15013122558594 L 122.23030090332031 250.0601348876953 L 122.45030212402344 248.98013305664062 C 123.42363739013672 249.04013061523438 124.12696838378906 249.0701446533203 124.560302734375 249.0701446533203 C 125.2669677734375 249.0701446533203 126.11363983154297 249.00680541992188 127.10030364990234 248.88014221191406 L 126.98030090332031 249.98013305664062 C 126.42030334472656 250.0601348876953 126.01364135742188 250.216796875 125.76030731201172 250.45013427734375 C 125.50697326660156 250.6834716796875 125.37030029296875 251.03347778320312 125.35030364990234 251.50013732910156 L 125.02030181884766 264.9801330566406 L 124.32030487060547 265.32012939453125 C 121.42697143554688 260.8268127441406 118.45030212402344 256.4201354980469 115.39030456542969 252.1001434326172 L 115.27030181884766 252.1001434326172 L 115.15030670166016 262.34014892578125 C 115.15030670166016 262.6934814453125 115.20697021484375 262.9434814453125 115.32030487060547 263.09014892578125 C 115.43363952636719 263.2301330566406 115.62696838378906 263.3001403808594 115.90030670166016 263.3001403808594 L 117.12030792236328 263.2801513671875 L 117.17030334472656 263.380126953125 L 116.95030212402344 264.46014404296875 C 115.94363403320312 264.3934631347656 115.20030212402344 264.3601379394531 114.72030639648438 264.3601379394531 C 113.9536361694336 264.3601379394531 113.10697174072266 264.4234619140625 112.18030548095703 264.5501403808594 L 112.30030822753906 263.45013427734375 C 113.27363586425781 263.3367919921875 113.7669677734375 262.8334655761719 113.78030395507812 261.94012451171875 L 114.10030364990234 251.45013427734375 C 114.10030364990234 250.95013427734375 113.95030212402344 250.5968017578125 113.65030670166016 250.39013671875 C 113.35697174072266 250.1834716796875 112.810302734375 250.04013061523438 112.01030731201172 249.96014404296875 L 111.9403076171875 249.8401336669922 L 112.13030242919922 248.95013427734375 C 113.05696868896484 249.03013610839844 113.74363708496094 249.0701446533203 114.1903076171875 249.0701446533203 L 115.80030822753906 248.98013305664062 C 118.1669692993164 252.66014099121094 120.8536376953125 256.6268005371094 123.86030578613281 260.880126953125 L 123.98030090332031 260.880126953125 Z" transform="matrix(28.464139938354492, 0, 0, 28.464139938354492, -2734.884033203125, -6822.36669921875)" style="fill: rgb(66, 66, 66); white-space: pre; color: rgb(51, 51, 51); stroke-opacity: 1; stroke: rgb(255, 233, 219); stroke-width: 0;"/><path d="M 767.19140625 164.23629760742188" style="fill: rgb(191, 95, 130); fill-opacity: 1; stroke: rgb(191, 95, 130); stroke-opacity: 1; stroke-width: 10; paint-order: stroke;"/><path d="M 1128.9644775390625 258.0293273925781" style="fill: rgb(191, 95, 130); fill-opacity: 1; stroke: rgb(191, 95, 130); stroke-opacity: 1; stroke-width: 10; paint-order: stroke;"/></svg>