<svg width="380" height="357" viewBox="0 0 380 357" fill="none" xmlns="http://www.w3.org/2000/svg">
<g filter="url(#filter0_d_666_351)">
<path d="M280.223 247.793H118.81C111.273 247.793 89.5772 247.936 79.2407 242.768C56.6302 231.463 47.8384 216.389 50.4429 184.358C53.8644 142.277 84.2666 137.881 101.224 134.74C104.901 108.361 124.463 59.9991 194.807 60C228.977 60.0004 263.894 82.6105 275.2 120.295C281.899 120.295 299.233 118.233 319.792 127.204C354.336 142.277 355.592 201.316 341.775 220.158C328.957 237.637 317.908 245.909 280.223 247.793Z" fill="white"/>
<path d="M111.551 282.336L132.277 263.494" stroke="#A2E1FB" stroke-width="8" stroke-linecap="round"/>
<path d="M57.5371 282.336L78.2634 263.494" stroke="#A2E1FB" stroke-width="8" stroke-linecap="round"/>
<path d="M164.309 252.189L185.035 233.347" stroke="#A2E1FB" stroke-width="8" stroke-linecap="round"/>
<path d="M232.141 248.421L252.867 229.579" stroke="#A2E1FB" stroke-width="8" stroke-linecap="round"/>
<path d="M297.459 248.421L318.185 229.579" stroke="#A2E1FB" stroke-width="8" stroke-linecap="round"/>
<path d="M238.42 282.336L259.146 263.494" stroke="#A2E1FB" stroke-width="8" stroke-linecap="round"/>
<path d="M178.127 282.336L198.853 263.494" stroke="#A2E1FB" stroke-width="8" stroke-linecap="round"/>
<path d="M100.246 248.421L120.972 229.579" stroke="#A2E1FB" stroke-width="8" stroke-linecap="round"/>
<path d="M292.436 282.336L313.162 263.494" stroke="#A2E1FB" stroke-width="8" stroke-linecap="round"/>
</g>
<defs>
<filter id="filter0_d_666_351" x="0" y="50" width="380" height="306.336" filterUnits="userSpaceOnUse" color-interpolation-filters="sRGB">
<feFlood flood-opacity="0" result="BackgroundImageFix"/>
<feColorMatrix in="SourceAlpha" type="matrix" values="0 0 0 0 0 0 0 0 0 0 0 0 0 0 0 0 0 0 127 0" result="hardAlpha"/>
<feOffset dx="-10" dy="30"/>
<feGaussianBlur stdDeviation="20"/>
<feComposite in2="hardAlpha" operator="out"/>
<feColorMatrix type="matrix" values="0 0 0 0 0 0 0 0 0 0 0 0 0 0 0 0 0 0 0.25 0"/>
<feBlend mode="normal" in2="BackgroundImageFix" result="effect1_dropShadow_666_351"/>
<feBlend mode="normal" in="SourceGraphic" in2="effect1_dropShadow_666_351" result="shape"/>
</filter>
</defs>
</svg>
